<svg width="18" height="18" viewBox="0 0 18 18" fill="none" xmlns="http://www.w3.org/2000/svg">
<path d="M8.13273 10.3091C8.28 8.90182 9.16364 7.75636 10.1945 7.75636C11.2255 7.75636 11.7818 8.90182 11.6345 10.3091C11.4873 11.7164 10.6364 12.8782 9.67091 12.8782C8.70545 12.8782 7.92 11.9945 8.13273 10.3091ZM9 16.6909C6.70924 16.6942 4.53678 15.674 3.07636 13.9091C4.35273 14.3182 5.77636 13.9582 6.88909 12.8618C7.0066 12.7439 7.11594 12.6182 7.21636 12.4855C7.72364 13.5818 8.70545 14.1382 9.68727 14.1382C11.3564 14.1382 12.7636 12.42 12.9273 10.2927C13.0909 8.16545 11.8964 6.48 10.3091 6.48C9.73314 6.47202 9.1664 6.62504 8.67273 6.92182L9.16364 4.05818C9.21257 3.82896 9.15876 3.58981 9.01636 3.40364C8.86909 3.17455 8.73818 3.07636 8.54182 3.07636H6.25091C6.11547 3.08342 6.00486 3.18712 5.98909 3.32182C5.92822 3.59151 5.88449 3.86478 5.85818 4.14C5.84182 4.32 5.97273 4.38545 6.12 4.38545H7.78909C7.52727 6.02182 7.00364 9.19636 6.85636 9.99818C6.70198 10.7571 6.33279 11.4558 5.79273 12.0109C4.87636 12.9273 3.19091 13.14 2.19273 12.1418C1.84909 11.7818 1.30909 10.8982 1.30909 9C1.30909 4.75243 4.75243 1.30909 9 1.30909C13.2476 1.30909 16.6909 4.75243 16.6909 9C16.6909 13.2476 13.2476 16.6909 9 16.6909ZM9 0C4.02944 0 0 4.02944 0 9C0 13.9706 4.02944 18 9 18C13.9706 18 18 13.9706 18 9C18 6.61305 17.0518 4.32387 15.364 2.63604C13.6761 0.948212 11.3869 0 9 0Z" fill="#212124"/>
</svg>
