<svg width="20" height="20" viewBox="0 0 20 20" fill="none" xmlns="http://www.w3.org/2000/svg">
<path fill-rule="evenodd" clip-rule="evenodd" d="M10.75 20.0001C15.922 19.6161 20 15.2921 20 10.0141V10.0001C20 4.47706 15.523 6.10352e-05 10 6.10352e-05C4.477 6.10352e-05 0 4.47706 0 10.0001V10.0141C0 15.2921 4.078 19.6161 9.25 20.0001V19.9721C6.73594 19.783 4.38609 18.6513 2.67088 16.8035C0.955681 14.9557 0.00172334 12.5282 0 10.0071C0.004 4.48006 4.48 6.10352e-05 10 6.10352e-05C15.52 6.10352e-05 19.996 4.48006 20 10.0071C19.996 15.2741 15.92 19.5891 10.75 19.9721V20.0001Z" fill="#94A3B8"/>
<path d="M9.25 19.9721C9.7493 20.0096 10.2507 20.0096 10.75 19.9721C15.92 19.5891 19.996 15.2741 20 10.0071C19.996 4.48006 15.52 6.10352e-05 10 6.10352e-05C4.48 6.10352e-05 0.004 4.48006 0 10.0071C0.004 15.2741 4.08 19.5891 9.25 19.9721Z" fill="#E2E8F0"/>
<path d="M6.49961 10.5151C6.49932 11.3137 6.77177 12.0885 7.27187 12.7112C7.77197 13.3339 8.46972 13.7671 9.24961 13.9391L9.25 19.9721C9.7493 20.0096 10.2507 20.0096 10.75 19.9721L10.7496 13.9401C11.5295 13.7681 12.2272 13.3349 12.7273 12.7122C13.2274 12.0895 13.4999 11.3147 13.4996 10.5161V10.0151C13.4997 9.88369 13.474 9.75355 13.4238 9.6321C13.3736 9.51066 13.2999 9.40031 13.2071 9.30734C13.1142 9.21438 13.0039 9.14063 12.8825 9.09031C12.7611 9.03999 12.631 9.01409 12.4996 9.01409H12.2496V7.01009C12.2496 6.81118 12.1706 6.62042 12.0299 6.47976C11.8893 6.33911 11.6985 6.26009 11.4996 6.26009C11.3007 6.26009 11.1099 6.33911 10.9693 6.47976C10.8286 6.62042 10.7496 6.81118 10.7496 7.01009V9.01309H9.24961V7.01009C9.24961 6.81118 9.17059 6.62042 9.02994 6.47976C8.88929 6.33911 8.69852 6.26009 8.49961 6.26009C8.3007 6.26009 8.10993 6.33911 7.96928 6.47976C7.82863 6.62042 7.74961 6.81118 7.74961 7.01009V9.01309H7.49961C7.3682 9.01309 7.23809 9.03899 7.11669 9.08931C6.9953 9.13963 6.88502 9.21338 6.79215 9.30634C6.69928 9.39931 6.62564 9.50966 6.57544 9.6311C6.52525 9.75254 6.49948 9.88269 6.49961 10.0141V10.5151Z" fill="#94A3B8"/>
</svg>
