<svg width="19" height="18" viewBox="0 0 19 18" fill="none" xmlns="http://www.w3.org/2000/svg">
<path d="M9.1665 18C4.18744 18 0.166504 13.9791 0.166504 9C0.166504 4.02093 4.18744 0 9.1665 0C14.1456 0 18.1665 4.02093 18.1665 9C18.1665 13.9737 14.1456 18 9.1665 18Z" fill="black"/>
<path d="M14.9789 7.6543H13.2134V10.3188H14.9789C15.7164 10.3188 16.3192 9.71053 16.3192 8.97847C16.3192 8.24641 15.7164 7.6543 14.9789 7.6543Z" fill="#FFF100"/>
<path d="M4.56299 8.99461C4.56299 11.0508 6.23703 12.7249 8.29325 12.7249C10.3495 12.7249 12.0235 11.0508 12.0235 8.99461C12.0235 6.93839 10.3495 5.26435 8.29325 5.26435C6.23703 5.26435 4.56299 6.93839 4.56299 8.99461Z" fill="#FFF100"/>
</svg>
