<svg width="18" height="18" viewBox="0 0 18 18" fill="none" xmlns="http://www.w3.org/2000/svg">
<path fill-rule="evenodd" clip-rule="evenodd" d="M6.39297 17.6166V10.6431H4.5V7.69686H6.33619C6.33619 7.40023 6.33711 7.11492 6.33795 6.83564C6.33962 6.29453 6.34129 5.77624 6.33609 5.2431C6.33609 2.92314 8.10158 2.25 9.68873 2.25H12.3646V5.16053C12.2114 5.16145 11.7559 5.16108 11.3389 5.1608L10.8144 5.16053C10.8124 5.16053 10.8094 5.16053 10.8054 5.16034C10.6931 5.15802 9.81148 5.13974 9.81148 6.0248C9.81724 6.39928 9.81148 7.68869 9.81148 7.68869H12.375L12.1673 10.5872H9.87142V17.9585C14.4331 17.5201 18 13.6767 18 9C18 4.02949 13.9706 0 9 0C4.0294 0 0 4.02949 0 9C0 13.064 2.69369 16.4989 6.39297 17.6166Z" fill="url(#paint0_linear_2204_84555)"/>
<defs>
<linearGradient id="paint0_linear_2204_84555" x1="9" y1="0" x2="9" y2="17.9584" gradientUnits="userSpaceOnUse">
<stop stop-color="#53ABF8"/>
<stop offset="1" stop-color="#2C67D9"/>
</linearGradient>
</defs>
</svg>
