<svg width="19" height="21" viewBox="0 0 19 21" fill="none" xmlns="http://www.w3.org/2000/svg">
<g clip-path="url(#clip0_2204_84547)">
<path d="M13.8872 2.50844V18.0789C13.8872 19.8211 15.0873 20.7919 16.3603 20.7919C17.538 20.7919 18.8334 19.9662 18.8334 18.0789V2.6265C18.8334 1.02928 17.6557 0.0313416 16.3603 0.0313416C15.0649 0.0313416 13.8872 1.13188 13.8872 2.50844Z" fill="#F9AB00"/>
<path d="M7.4101 10.4117V18.0789C7.4101 19.8211 8.61017 20.7919 9.88318 20.7919C11.0609 20.7919 12.3563 19.9662 12.3563 18.0789V10.5296C12.3563 8.93239 11.1786 7.93456 9.88318 7.93456C8.58783 7.93456 7.4101 9.0351 7.4101 10.4117ZM3.40618 20.7919C4.77206 20.7919 5.87926 19.6829 5.87926 18.3148C5.87926 16.9467 4.77206 15.8377 3.40618 15.8377C2.04031 15.8377 0.933105 16.9467 0.933105 18.3148C0.933105 19.6829 2.04042 20.7919 3.40618 20.7919Z" fill="#E37400"/>
</g>
<defs>
<clipPath id="clip0_2204_84547">
<rect width="18" height="20.8587" fill="white" transform="translate(0.833496)"/>
</clipPath>
</defs>
</svg>
