<svg width="19" height="17" viewBox="0 0 19 17" fill="none" xmlns="http://www.w3.org/2000/svg">
<path d="M1.20508 12.002L7.19026 1.63533L12.3765 4.62957L6.39208 14.9963L1.20508 12.002Z" fill="#FBBC04"/>
<path d="M18.4118 11.9659L12.4229 1.59558C11.6498 0.133441 9.83825 -0.425199 8.3761 0.347843C6.91378 1.12098 6.35595 2.93235 7.12836 4.39449C7.16223 4.45865 7.19832 4.52129 7.23663 4.58314L13.2256 14.9536C14.0333 16.3965 15.8581 16.9116 17.3012 16.1039C18.7442 15.2962 19.2594 13.4716 18.4516 12.0286C18.4385 12.0054 18.4253 11.9823 18.4118 11.9593V11.9659Z" fill="#4285F4"/>
<path d="M3.82791 16.4702C5.48173 16.4702 6.82242 15.1297 6.82242 13.4759C6.82242 11.8223 5.48173 10.4817 3.82791 10.4817C2.17418 10.4817 0.833496 11.8223 0.833496 13.4759C0.833496 15.1297 2.17418 16.4702 3.82791 16.4702Z" fill="#34A853"/>
</svg>
