<svg width="25" height="18" viewBox="0 0 25 18" fill="none" xmlns="http://www.w3.org/2000/svg">
<path d="M10.4185 2.3999C11.2077 1.57778 12.3064 1.06794 13.5215 1.06794C15.1372 1.06794 16.5465 1.96853 17.2968 3.30598C17.9493 3.01456 18.671 2.85266 19.4305 2.85266C22.3441 2.85266 24.7068 5.23559 24.7068 8.17445C24.7068 11.1133 22.3447 13.4968 19.4305 13.4968C19.0749 13.4968 18.7275 13.4606 18.3911 13.3931C17.7303 14.5719 16.4708 15.3682 15.0247 15.3682C14.4199 15.3682 13.8475 15.2288 13.3377 14.9797C12.6681 16.5558 11.1067 17.6611 9.28745 17.6611C7.46815 17.6611 5.77782 16.4626 5.15822 14.781C4.88766 14.8381 4.60667 14.8683 4.31854 14.8683C2.06349 14.8683 0.234863 13.0204 0.234863 10.7412C0.234863 9.21335 1.05588 7.87974 2.27698 7.16629C2.02562 6.58785 1.88623 5.94959 1.88623 5.27839C1.88623 2.65729 4.0145 0.531754 6.6389 0.531754C8.17996 0.531754 9.54978 1.26441 10.4185 2.3999Z" fill="#139CD8"/>
<path d="M3.77753 9.41458C3.76216 9.45464 3.78302 9.46287 3.78796 9.47001C3.83406 9.50348 3.88016 9.52763 3.92735 9.55452C4.17706 9.68679 4.41305 9.7252 4.65946 9.7252C5.16162 9.7252 5.47335 9.45848 5.47335 9.02877V9.02053C5.47335 8.6232 5.12101 8.47831 4.79118 8.37404L4.74782 8.36032C4.49866 8.27964 4.28408 8.20939 4.28408 8.04585V8.03762C4.28408 7.89712 4.40976 7.79395 4.60403 7.79395C4.82026 7.79395 5.07656 7.86584 5.24175 7.95749C5.24175 7.95749 5.29059 7.98877 5.30815 7.94158C5.31803 7.91578 5.40145 7.69132 5.41023 7.66662C5.41956 7.64028 5.4031 7.62052 5.38554 7.6101C5.19675 7.4954 4.93606 7.41692 4.66605 7.41692H4.61611C4.15621 7.41692 3.8357 7.69516 3.8357 8.0925V8.10073C3.8357 8.51947 4.18968 8.65612 4.52116 8.75052L4.5744 8.76698C4.81587 8.84107 5.02442 8.90528 5.02442 9.07486V9.08365C5.02442 9.23896 4.88887 9.35476 4.67099 9.35476C4.58592 9.35476 4.31591 9.35311 4.02449 9.16871C3.98937 9.14786 3.96906 9.13304 3.94162 9.11657C3.92735 9.10779 3.89113 9.09188 3.87522 9.13908L3.77643 9.41403L3.77753 9.41458Z" fill="white"/>
<path d="M11.1291 9.41458C11.1137 9.45464 11.1346 9.46287 11.1395 9.47001C11.1856 9.50348 11.2317 9.52763 11.2789 9.55452C11.5286 9.68679 11.7646 9.7252 12.011 9.7252C12.5132 9.7252 12.8249 9.45848 12.8249 9.02877V9.02053C12.8249 8.6232 12.4726 8.47831 12.1427 8.37404L12.0994 8.36032C11.8502 8.27964 11.6356 8.20939 11.6356 8.04585V8.03762C11.6356 7.89712 11.7613 7.79395 11.9556 7.79395C12.1718 7.79395 12.4281 7.86584 12.5933 7.95749C12.5933 7.95749 12.6422 7.98877 12.6597 7.94158C12.6696 7.91578 12.753 7.69132 12.7618 7.66662C12.7711 7.64028 12.7547 7.62052 12.7371 7.6101C12.5483 7.4954 12.2876 7.41692 12.0176 7.41692H11.9677C11.5078 7.41692 11.1873 7.69516 11.1873 8.0925V8.10073C11.1873 8.51947 11.5418 8.65612 11.8727 8.75052L11.926 8.76698C12.1674 8.84107 12.3765 8.90528 12.3765 9.07486V9.08365C12.3765 9.23896 12.241 9.35476 12.0226 9.35476C11.9375 9.35476 11.668 9.35311 11.3761 9.16871C11.3409 9.14786 11.3201 9.13359 11.2932 9.11657C11.2844 9.11109 11.2416 9.09407 11.2273 9.13908L11.128 9.41403L11.1291 9.41458Z" fill="white"/>
<path d="M16.5637 8.12223C16.5225 7.98283 16.4583 7.86045 16.3732 7.75837C16.2882 7.65574 16.1795 7.57342 16.0511 7.5136C15.9232 7.45378 15.7717 7.4236 15.6021 7.4236C15.4326 7.4236 15.2805 7.45433 15.1527 7.5136C15.0248 7.57287 14.9161 7.65574 14.8311 7.75837C14.7455 7.86045 14.6812 7.98338 14.6406 8.12223C14.5995 8.26053 14.5786 8.412 14.5786 8.57225C14.5786 8.73251 14.5995 8.88453 14.6406 9.02283C14.6818 9.16167 14.7455 9.28406 14.8311 9.38669C14.9161 9.48931 15.0248 9.57108 15.1532 9.62926C15.2816 9.68743 15.4326 9.71707 15.6027 9.71707C15.7728 9.71707 15.9232 9.68743 16.0516 9.62926C16.1795 9.57108 16.2881 9.48876 16.3738 9.38669C16.4588 9.28461 16.5236 9.16167 16.5642 9.02283C16.6054 8.88453 16.6262 8.73305 16.6262 8.57225C16.6262 8.41145 16.6054 8.26053 16.5642 8.12223M16.1449 8.57225C16.1449 8.81483 16.0994 9.00691 16.0105 9.14192C15.9221 9.27583 15.7887 9.34113 15.6027 9.34113C15.4166 9.34113 15.2838 9.27583 15.1966 9.14192C15.1082 9.00691 15.0638 8.81483 15.0638 8.57225C15.0638 8.32968 15.1082 8.1387 15.196 8.00479C15.2833 7.87252 15.4161 7.80776 15.6027 7.80776C15.7893 7.80776 15.9221 7.87198 16.0105 8.00479C16.0999 8.1387 16.1449 8.32968 16.1449 8.57225Z" fill="white"/>
<path fill-rule="evenodd" clip-rule="evenodd" d="M20.0047 9.27626C19.991 9.23565 19.9509 9.25101 19.9509 9.25101C19.89 9.27461 19.8253 9.29547 19.7561 9.30644C19.6864 9.31742 19.6096 9.32291 19.5267 9.32291C19.3242 9.32291 19.1629 9.26254 19.0471 9.14345C18.9318 9.02381 18.8665 8.83118 18.8671 8.57049C18.8676 8.33341 18.9252 8.15504 19.0279 8.01894C19.1299 7.88393 19.2858 7.81423 19.4927 7.81423C19.6656 7.81423 19.7973 7.83454 19.9356 7.87735C19.9356 7.87735 19.9685 7.89162 19.9839 7.84881C20.0212 7.74673 20.0481 7.67429 20.087 7.56233C20.098 7.5305 20.0711 7.51678 20.0607 7.51294C20.0064 7.49153 19.8785 7.45696 19.7814 7.44214C19.6914 7.42842 19.5849 7.42129 19.4669 7.42129C19.2913 7.42129 19.1343 7.45147 18.9999 7.51129C18.866 7.57056 18.7523 7.65288 18.6623 7.75551C18.5723 7.85814 18.5043 7.98052 18.4587 8.11937C18.4132 8.25767 18.3901 8.40969 18.3901 8.57049C18.3901 8.91789 18.4834 9.19888 18.6689 9.40413C18.8544 9.61103 19.1327 9.71585 19.496 9.71585C19.7106 9.71585 19.9306 9.6725 20.0892 9.60993C20.0892 9.60993 20.1194 9.59512 20.1063 9.55999L20.0036 9.27571L20.0047 9.27626Z" fill="white"/>
<path fill-rule="evenodd" clip-rule="evenodd" d="M22.1497 8.0432C22.114 7.90875 22.0262 7.77319 21.9686 7.71117C21.8775 7.61239 21.7874 7.54379 21.6991 7.50592C21.5838 7.45653 21.445 7.4236 21.2924 7.4236C21.1157 7.4236 20.9549 7.45323 20.8243 7.5147C20.6937 7.57562 20.5839 7.65959 20.4978 7.76386C20.4116 7.86758 20.3468 7.99162 20.3057 8.13211C20.2645 8.27151 20.2437 8.42353 20.2437 8.58433C20.2437 8.74513 20.2651 8.90044 20.3079 9.03709C20.3512 9.17539 20.4198 9.29668 20.5131 9.39766C20.6064 9.49919 20.7266 9.57822 20.8698 9.6342C21.0125 9.68908 21.186 9.71817 21.3846 9.71707C21.794 9.71597 22.0103 9.62487 22.0992 9.57547C22.1151 9.56669 22.1299 9.55133 22.1112 9.50742L22.0179 9.24784C22.0037 9.20942 21.9647 9.22314 21.9647 9.22314C21.8632 9.26101 21.7188 9.32851 21.3824 9.32796C21.1624 9.32796 20.9994 9.26266 20.8973 9.16113C20.7925 9.0574 20.7409 8.90483 20.7321 8.6897L22.1502 8.6908C22.1502 8.6908 22.1875 8.6908 22.1914 8.65348C22.193 8.63811 22.2397 8.36206 22.1491 8.04265M20.7392 8.33956C20.7595 8.20455 20.7963 8.0926 20.8539 8.00534C20.9406 7.87252 21.0729 7.79898 21.2595 7.79898C21.4461 7.79898 21.5685 7.87252 21.6568 8.00534C21.7156 8.09314 21.7408 8.20949 21.7512 8.34011H20.7392V8.33956Z" fill="white"/>
<path fill-rule="evenodd" clip-rule="evenodd" d="M10.7893 8.04321C10.7536 7.90875 10.6658 7.7732 10.6082 7.71118C10.5171 7.6124 10.4276 7.5438 10.3387 7.50593C10.2229 7.45654 10.0846 7.42361 9.93262 7.42361C9.75536 7.42361 9.59456 7.45324 9.46394 7.51471C9.33332 7.57563 9.22356 7.65959 9.1374 7.76387C9.05124 7.86759 8.98648 7.99162 8.94532 8.13212C8.90416 8.27152 8.8833 8.42353 8.8833 8.58434C8.8833 8.74514 8.9047 8.90045 8.94751 9.0371C8.99087 9.1754 9.05947 9.29669 9.15277 9.39767C9.24606 9.4992 9.36625 9.57823 9.50949 9.63421C9.65218 9.68909 9.8256 9.71817 10.0243 9.71708C10.4337 9.71598 10.6499 9.62488 10.7388 9.57548C10.7547 9.5667 10.7696 9.55134 10.7509 9.50743L10.6576 9.24785C10.6433 9.20943 10.6044 9.22315 10.6044 9.22315C10.5028 9.26102 10.3585 9.32852 10.0221 9.32797C9.80255 9.32797 9.63901 9.26266 9.53693 9.16113C9.43211 9.05741 9.38052 8.90484 9.37174 8.68971L10.7899 8.6908C10.7899 8.6908 10.8272 8.6908 10.831 8.65349C10.8327 8.63812 10.8793 8.36207 10.7888 8.04266M9.37887 8.33957C9.39918 8.20456 9.43595 8.0926 9.49303 8.00534C9.58029 7.87253 9.71255 7.79899 9.8986 7.79899C10.0846 7.79899 10.2081 7.87253 10.2965 8.00534C10.3547 8.09315 10.3804 8.2095 10.3903 8.34012H9.37833L9.37887 8.33957Z" fill="white"/>
<path d="M6.87516 8.27193C6.81753 8.26754 6.74289 8.26535 6.65399 8.26535C6.53215 8.26535 6.41471 8.28071 6.3044 8.31035C6.19354 8.33998 6.0942 8.38608 6.00859 8.44755C5.92243 8.50957 5.85328 8.58804 5.80279 8.68189C5.7523 8.77574 5.72705 8.8855 5.72705 9.00843C5.72705 9.13137 5.74845 9.24332 5.79236 9.33223C5.83571 9.42168 5.89773 9.49687 5.97731 9.55395C6.05634 9.61157 6.15347 9.65383 6.26598 9.67908C6.37739 9.70487 6.50361 9.71749 6.64191 9.71749C6.78735 9.71749 6.93223 9.70542 7.07273 9.68127C7.21213 9.65767 7.38226 9.6231 7.43 9.61212C7.4772 9.60115 7.52934 9.58688 7.52934 9.58688C7.56446 9.57809 7.56172 9.54023 7.56172 9.54023V8.24339C7.56117 7.95856 7.48488 7.74782 7.33561 7.61666C7.18688 7.48659 6.96736 7.42073 6.68362 7.42073C6.57715 7.42073 6.40648 7.435 6.3033 7.45585C6.3033 7.45585 5.99377 7.51567 5.86645 7.61611C5.86645 7.61611 5.83846 7.63312 5.85328 7.67263L5.95371 7.94265C5.96633 7.97777 6.00036 7.9657 6.00036 7.9657C6.00036 7.9657 6.01133 7.96131 6.02396 7.95362C6.29671 7.80545 6.64191 7.80984 6.64191 7.80984C6.79503 7.80984 6.91303 7.84112 6.9926 7.90149C7.06998 7.96131 7.10895 8.05021 7.10895 8.23955V8.29937C6.98711 8.28181 6.87516 8.27193 6.87516 8.27193ZM6.31098 9.26857C6.255 9.22411 6.24787 9.21314 6.22921 9.1846C6.20067 9.14124 6.1864 9.07923 6.1864 9.0002C6.1864 8.87562 6.22756 8.78562 6.31318 8.7258C6.31263 8.7258 6.43556 8.61933 6.72478 8.62317C6.92784 8.62591 7.11005 8.6561 7.11005 8.6561V9.30095C7.11005 9.30095 6.93004 9.33936 6.72698 9.35144C6.43831 9.369 6.30988 9.26857 6.31098 9.26857Z" fill="white"/>
<path fill-rule="evenodd" clip-rule="evenodd" d="M18.3164 7.54133C18.3273 7.5095 18.3043 7.49413 18.2949 7.49029C18.2708 7.48151 18.1501 7.45572 18.0573 7.44968C17.879 7.4387 17.7802 7.46889 17.6913 7.5084C17.6029 7.54792 17.5058 7.61213 17.452 7.68512V7.51224C17.452 7.48865 17.435 7.46944 17.4108 7.46944H17.047C17.0234 7.46944 17.0063 7.48865 17.0063 7.51224V9.62845C17.0063 9.65205 17.0256 9.67125 17.0497 9.67125H17.4223C17.4459 9.67125 17.4652 9.65205 17.4652 9.62845V8.57144C17.4652 8.4293 17.4811 8.28826 17.5123 8.19935C17.5431 8.11099 17.5848 8.04129 17.6364 7.9908C17.688 7.94031 17.7472 7.90519 17.812 7.88543C17.8779 7.86513 17.9508 7.85854 18.0019 7.85854C18.0765 7.85854 18.1577 7.87775 18.1577 7.87775C18.1852 7.88049 18.2006 7.86348 18.2099 7.83933C18.234 7.77457 18.3032 7.5803 18.3164 7.54133Z" fill="white"/>
<path fill-rule="evenodd" clip-rule="evenodd" d="M14.8208 6.56023C14.7753 6.54596 14.7346 6.53663 14.6803 6.5273C14.6254 6.51742 14.5607 6.51193 14.4877 6.51193C14.2314 6.51193 14.0289 6.58438 13.8873 6.72761C13.7462 6.86976 13.6502 7.08599 13.6019 7.37082L13.5849 7.46686H13.2627C13.2627 7.46686 13.2232 7.46521 13.215 7.50802L13.1623 7.80273C13.1585 7.83072 13.1705 7.84828 13.2084 7.84828H13.5218L13.2035 9.62367C13.1788 9.76636 13.1502 9.88381 13.1184 9.97326C13.0877 10.0616 13.0569 10.1269 13.0196 10.1752C12.9834 10.2213 12.9494 10.2559 12.8895 10.2757C12.8407 10.2916 12.7842 10.2993 12.7227 10.2993C12.6887 10.2993 12.6431 10.2938 12.6091 10.2866C12.5751 10.28 12.5575 10.2724 12.5323 10.2619C12.5323 10.2619 12.4955 10.2477 12.4807 10.2844C12.4692 10.3146 12.3857 10.5446 12.3759 10.5731C12.366 10.6011 12.3797 10.6231 12.3978 10.6296C12.4395 10.6445 12.4703 10.6543 12.5273 10.6675C12.6064 10.6862 12.6728 10.6873 12.7353 10.6873C12.8659 10.6873 12.985 10.6692 13.0833 10.6335C13.1826 10.5973 13.2688 10.5347 13.3456 10.4507C13.4279 10.3596 13.4801 10.2636 13.53 10.133C13.5794 10.004 13.6211 9.8432 13.6546 9.6566L13.974 7.84828H14.441C14.441 7.84828 14.4805 7.84993 14.4888 7.80712L14.5415 7.51241C14.5453 7.48442 14.5332 7.46686 14.4954 7.46686H14.042C14.0442 7.45698 14.0645 7.29728 14.1167 7.1469C14.1392 7.08269 14.1809 7.0311 14.2166 6.99543C14.2511 6.96031 14.2912 6.93561 14.3351 6.92134C14.3801 6.90707 14.4312 6.89994 14.4871 6.89994C14.5299 6.89994 14.5716 6.90488 14.6035 6.91146C14.6474 6.92079 14.6644 6.92573 14.6759 6.92903C14.722 6.9433 14.7281 6.92958 14.7374 6.90762L14.8455 6.60962C14.8565 6.57779 14.8296 6.56407 14.8197 6.56023" fill="white"/>
<path fill-rule="evenodd" clip-rule="evenodd" d="M8.48261 9.62842C8.48261 9.65202 8.46559 9.67178 8.442 9.67178H8.06551C8.04191 9.67178 8.0249 9.65257 8.0249 9.62842V6.60119C8.0249 6.5776 8.04191 6.55839 8.06551 6.55839H8.442C8.46559 6.55839 8.48261 6.5776 8.48261 6.60119V9.62842Z" fill="white"/>
</svg>
