<svg width="19" height="18" viewBox="0 0 19 18" fill="none" xmlns="http://www.w3.org/2000/svg">
<g clip-path="url(#clip0_2204_84523)">
<path fill-rule="evenodd" clip-rule="evenodd" d="M39.7382 4.76438L39.5684 3.95775H37.2081V13.5225H39.9351V7.03125C40.5803 6.1875 41.6687 6.35175 42.0152 6.45919V3.95888C41.6519 3.82838 40.3767 3.58875 39.7382 4.76325V4.76438ZM34.2651 1.5885L31.6011 2.15438L31.5899 10.908C31.5899 12.5224 32.8037 13.7166 34.4237 13.7166C35.3153 13.7166 35.974 13.5467 36.3391 13.3549V11.133C35.9892 11.2725 34.2674 11.7731 34.2674 10.1655V6.28425H36.3391V3.95719H34.2674L34.2651 1.5885ZM26.8772 6.73313C26.8772 6.30675 27.2316 6.1425 27.8042 6.1425C28.7521 6.16302 29.6823 6.40374 30.5211 6.84563V4.275C29.6562 3.93491 28.7336 3.76529 27.8042 3.7755C25.597 3.7755 24.1159 4.932 24.1159 6.8625C24.1159 9.88313 28.2644 9.39263 28.2644 10.6948C28.2644 11.2044 27.8256 11.3619 27.2164 11.3619C26.3131 11.3619 25.1464 10.9884 24.2312 10.4901V13.0944C25.1734 13.5042 26.189 13.718 27.2164 13.7228C29.485 13.7228 31.0487 12.6023 31.0487 10.6374C31.0487 7.37719 26.8767 7.95994 26.8767 6.732L26.8772 6.73313ZM8.641 5.35219C8.641 4.58156 9.28225 4.28344 10.3184 4.28344C12.0332 4.32049 13.7159 4.7559 15.2335 5.55525V0.903375C13.6686 0.288401 11.9996 -0.0181638 10.3184 0.000562912C6.32462 0.000562912 3.646 2.0925 3.646 5.58563C3.646 11.0509 11.1509 10.1633 11.1509 12.519C11.1509 13.4404 10.3634 13.7261 9.25525 13.7261C7.62118 13.7261 5.51068 13.05 3.85525 12.15V16.8626C5.55963 17.6042 7.3971 17.9912 9.25581 18C13.3604 18 16.1897 15.9722 16.1897 12.4183C16.1897 6.51994 8.641 7.5735 8.641 5.35331V5.35219Z" fill="#6772E5"/>
</g>
<defs>
<clipPath id="clip0_2204_84523">
<rect width="18" height="18" fill="white" transform="translate(0.833496)"/>
</clipPath>
</defs>
</svg>
