<svg width="19" height="21" viewBox="0 0 19 21" fill="none" xmlns="http://www.w3.org/2000/svg">
<path d="M7.18097 8.05993V7.26244C6.9057 7.2186 6.62764 7.19458 6.34893 7.19054C3.65071 7.18475 1.26195 8.94309 0.45168 11.5312C-0.358587 14.1193 0.597776 16.9366 2.81258 18.4862C1.99968 17.6107 1.4566 16.5192 1.24847 15.3427C1.03974 14.1652 1.17439 12.9525 1.63632 11.8494C2.09702 10.7484 2.8662 9.80413 3.85123 9.13023C4.83381 8.45817 5.99062 8.08634 7.18077 8.06003L7.18097 8.05993Z" fill="#25F4EE"/>
<path d="M7.33039 17.0939C8.83898 17.0918 10.0789 15.8967 10.1451 14.3811V0.856402H12.602C12.5519 0.573745 12.5279 0.28706 12.5305 0H9.16982V13.5117C9.114 15.035 7.87094 16.2416 6.35516 16.2441C5.902 16.2401 5.45633 16.1281 5.05518 15.9172C5.31493 16.2794 5.65667 16.575 6.05248 16.7798C6.44757 16.9842 6.88556 17.0919 7.33039 17.0939ZM17.1913 5.44518V4.69344C16.2864 4.69359 15.4018 4.42515 14.6497 3.92211C15.3084 4.69305 16.2008 5.22784 17.1913 5.44518Z" fill="#25F4EE"/>
<path d="M14.6497 3.92211C13.9072 3.07087 13.4984 1.9793 13.4992 0.849711H12.6021C12.7178 1.47444 12.959 2.0692 13.3113 2.59797C13.6629 3.12568 14.1183 3.57623 14.6497 3.92211ZM6.34883 10.5701C5.71911 10.5735 5.10877 10.7882 4.61565 11.1799C4.12108 11.5728 3.77168 12.1194 3.62274 12.7332C3.47329 13.3478 3.53241 13.9947 3.79081 14.572C4.0484 15.1481 4.49113 15.6216 5.04865 15.9172C4.74414 15.4939 4.56191 14.9949 4.52189 14.475C4.48188 13.955 4.58562 13.434 4.82177 12.9691C5.05734 12.5049 5.41658 12.1149 5.85981 11.842C6.30208 11.57 6.81121 11.4261 7.33046 11.4263C7.61256 11.4301 7.89267 11.4743 8.16239 11.5575V8.11874C7.88699 8.07723 7.60897 8.05541 7.33046 8.05344H7.18087V10.6681C6.90979 10.595 6.62947 10.562 6.34883 10.5701Z" fill="#FE2C55"/>
<path d="M17.1914 5.44518V8.05993C15.5161 8.05628 13.8848 7.5232 12.5306 6.53686V13.4071C12.5234 16.8353 9.75789 19.6106 6.34885 19.6106C5.08185 19.6126 3.84573 19.2196 2.8125 18.4862C3.6545 19.3979 4.75219 20.0339 5.96179 20.3112C7.17003 20.5876 8.43365 20.4917 9.58632 20.0361C10.7411 19.5792 11.7314 18.7847 12.4277 17.7564C13.126 16.7254 13.4992 15.5088 13.4993 14.2636V7.41283C14.858 8.3927 16.4912 8.91885 18.1664 8.91633V5.54954C17.8387 5.54855 17.5119 5.51358 17.1914 5.44518Z" fill="#FE2C55"/>
<path d="M12.5309 13.407V6.53686C13.8892 7.51757 15.5228 8.04377 17.1982 8.04025V5.42561C16.2079 5.21484 15.3133 4.68701 14.65 3.92211C14.1186 3.57623 13.6632 3.12568 13.3116 2.59797C12.9594 2.0692 12.7181 1.47444 12.6024 0.849711H10.1454V14.3813C10.1216 14.9698 9.91593 15.5364 9.55665 16.0031C9.19841 16.4685 8.70385 16.8105 8.14193 16.9814C7.58086 17.1518 6.98052 17.1421 6.42523 16.9538C5.869 16.7649 5.38558 16.4072 5.04237 15.9304C4.48478 15.6348 4.04198 15.1613 3.78433 14.5852C3.52587 14.0078 3.46671 13.3609 3.61616 12.7463C3.76508 12.1324 4.11453 11.5857 4.60917 11.1928C5.10237 10.8012 5.71277 10.5865 6.34255 10.5831C6.62475 10.5857 6.90506 10.6297 7.17459 10.7139V8.09907C5.97809 8.11979 4.81372 8.48973 3.82467 9.16338C2.83318 9.83902 2.05941 10.7882 1.59749 11.8956C1.13435 13.005 1.00214 14.2247 1.21682 15.4075C1.43081 16.5893 1.98294 17.6837 2.8063 18.558C3.84976 19.2673 5.08769 19.6351 6.34914 19.6106C9.75807 19.6106 12.5237 16.8353 12.5309 13.407Z" fill="black"/>
</svg>
