<svg width="1318" height="529" viewBox="0 0 1318 529" fill="none" xmlns="http://www.w3.org/2000/svg">
<path d="M735 288V416.046C735 417.15 735.895 418.046 737 418.046H1044.9H1120C1121.1 418.046 1122 418.941 1122 420.046V495" stroke="url(#paint0_linear_99_25138)" stroke-width="2" stroke-dasharray="6 8"/>
<path d="M635 288V482" stroke="url(#paint1_linear_99_25138)" stroke-width="2" stroke-dasharray="6 8"/>
<path d="M536 288V355.981C536 357.085 535.105 357.981 534 357.981H270C268.895 357.981 268 358.876 268 359.981V735" stroke="url(#paint2_linear_99_25138)" stroke-width="2" stroke-dasharray="6 8"/>
<path d="M401.002 127.19H127.801C126.696 127.19 125.801 126.295 125.801 125.19V46.0127C125.801 44.9081 124.905 44.0127 123.801 44.0127H0" stroke="url(#paint3_linear_99_25138)" stroke-width="2" stroke-dasharray="6 8"/>
<path d="M881 159H1131.89C1132.99 159 1133.89 158.105 1133.89 157V3C1133.89 1.89543 1134.78 1 1135.89 1H1318" stroke="url(#paint4_linear_99_25138)" stroke-width="2" stroke-dasharray="6 8"/>
<path d="M401 228H51C49.8954 228 49 228.895 49 230V416" stroke="url(#paint5_linear_99_25138)" stroke-width="2" stroke-dasharray="6 8"/>
<path d="M881 235.87H1194C1195.1 235.87 1196 236.766 1196 237.87V340.5" stroke="url(#paint6_linear_99_25138)" stroke-width="2" stroke-dasharray="6 8"/>
<rect x="243" y="89" width="72" height="72" rx="2" fill="white"/>
<rect x="243.5" y="89.5" width="71" height="71" rx="1.5" stroke="#10B981" stroke-opacity="0.5"/>
<g clip-path="url(#clip0_99_25138)">
<path d="M274.664 111.896C276.209 110.287 278.359 109.29 280.736 109.29C283.898 109.29 286.656 111.052 288.124 113.669C289.401 113.099 290.813 112.782 292.299 112.782C298.001 112.782 302.624 117.445 302.624 123.196C302.624 128.947 298.002 133.611 292.299 133.611C291.603 133.611 290.924 133.54 290.265 133.408C288.972 135.715 286.508 137.273 283.678 137.273C282.494 137.273 281.374 137 280.377 136.512C279.066 139.597 276.011 141.76 272.451 141.76C268.891 141.76 265.583 139.414 264.371 136.124C263.841 136.235 263.292 136.294 262.728 136.294C258.315 136.294 254.737 132.679 254.737 128.219C254.737 125.229 256.343 122.619 258.733 121.223C258.241 120.091 257.968 118.842 257.968 117.529C257.968 112.4 262.133 108.24 267.268 108.24C270.284 108.24 272.964 109.674 274.664 111.896Z" fill="#10B981"/>
<path d="M261.672 125.622C261.642 125.7 261.683 125.716 261.692 125.73C261.783 125.796 261.873 125.843 261.965 125.896C262.454 126.154 262.916 126.23 263.398 126.23C264.38 126.23 264.99 125.708 264.99 124.867V124.851C264.99 124.073 264.301 123.79 263.656 123.586L263.571 123.559C263.083 123.401 262.663 123.263 262.663 122.943V122.927C262.663 122.652 262.909 122.45 263.289 122.45C263.713 122.45 264.214 122.591 264.537 122.77C264.537 122.77 264.633 122.832 264.667 122.739C264.687 122.689 264.85 122.25 264.867 122.201C264.885 122.15 264.853 122.111 264.819 122.091C264.449 121.866 263.939 121.713 263.411 121.713H263.313C262.413 121.713 261.786 122.257 261.786 123.035V123.051C261.786 123.87 262.479 124.138 263.127 124.322L263.231 124.354C263.704 124.499 264.112 124.625 264.112 124.957V124.974C264.112 125.278 263.847 125.505 263.42 125.505C263.254 125.505 262.726 125.501 262.155 125.141C262.087 125.1 262.047 125.071 261.993 125.039C261.965 125.021 261.894 124.99 261.863 125.083L261.67 125.621L261.672 125.622Z" fill="white"/>
<path d="M276.053 125.622C276.023 125.7 276.064 125.716 276.073 125.73C276.163 125.796 276.254 125.843 276.346 125.896C276.835 126.154 277.296 126.23 277.779 126.23C278.761 126.23 279.371 125.708 279.371 124.867V124.851C279.371 124.073 278.682 123.79 278.036 123.586L277.952 123.559C277.464 123.401 277.044 123.263 277.044 122.943V122.927C277.044 122.652 277.29 122.45 277.67 122.45C278.093 122.45 278.595 122.591 278.918 122.77C278.918 122.77 279.014 122.832 279.048 122.739C279.067 122.689 279.231 122.25 279.248 122.201C279.266 122.15 279.234 122.111 279.199 122.091C278.83 121.866 278.32 121.713 277.792 121.713H277.694C276.794 121.713 276.167 122.257 276.167 123.035V123.051C276.167 123.87 276.86 124.138 277.508 124.322L277.612 124.354C278.085 124.499 278.494 124.625 278.494 124.957V124.974C278.494 125.278 278.229 125.505 277.801 125.505C277.635 125.505 277.107 125.501 276.536 125.141C276.467 125.1 276.427 125.072 276.374 125.039C276.357 125.028 276.273 124.995 276.245 125.083L276.051 125.621L276.053 125.622Z" fill="white"/>
<path d="M286.69 123.094C286.61 122.821 286.484 122.582 286.317 122.382C286.151 122.181 285.938 122.02 285.687 121.903C285.437 121.786 285.14 121.727 284.809 121.727C284.477 121.727 284.179 121.787 283.929 121.903C283.679 122.019 283.466 122.181 283.3 122.382C283.132 122.582 283.007 122.822 282.927 123.094C282.847 123.364 282.806 123.661 282.806 123.974C282.806 124.288 282.847 124.585 282.927 124.856C283.008 125.128 283.132 125.367 283.3 125.568C283.466 125.769 283.679 125.929 283.93 126.043C284.181 126.157 284.477 126.215 284.81 126.215C285.143 126.215 285.437 126.157 285.688 126.043C285.938 125.929 286.151 125.768 286.319 125.568C286.485 125.368 286.612 125.128 286.691 124.856C286.772 124.585 286.813 124.289 286.813 123.974C286.813 123.66 286.772 123.364 286.691 123.094M285.871 123.974C285.871 124.449 285.782 124.825 285.608 125.089C285.435 125.351 285.174 125.479 284.81 125.479C284.446 125.479 284.186 125.351 284.015 125.089C283.842 124.825 283.755 124.449 283.755 123.974C283.755 123.5 283.842 123.126 284.014 122.864C284.185 122.605 284.445 122.478 284.81 122.478C285.175 122.478 285.435 122.604 285.608 122.864C285.783 123.126 285.871 123.5 285.871 123.974Z" fill="white"/>
<path fill-rule="evenodd" clip-rule="evenodd" d="M293.424 125.352C293.397 125.273 293.318 125.303 293.318 125.303C293.199 125.349 293.072 125.39 292.937 125.411C292.801 125.433 292.65 125.443 292.488 125.443C292.092 125.443 291.776 125.325 291.55 125.092C291.324 124.858 291.196 124.481 291.197 123.971C291.198 123.507 291.311 123.158 291.512 122.892C291.712 122.628 292.017 122.491 292.422 122.491C292.76 122.491 293.018 122.531 293.288 122.615C293.288 122.615 293.353 122.643 293.383 122.559C293.456 122.359 293.508 122.217 293.585 121.998C293.606 121.936 293.554 121.909 293.533 121.902C293.427 121.86 293.177 121.792 292.986 121.763C292.81 121.736 292.602 121.722 292.371 121.722C292.027 121.722 291.72 121.781 291.457 121.898C291.195 122.014 290.973 122.175 290.797 122.376C290.621 122.577 290.487 122.817 290.398 123.088C290.309 123.359 290.264 123.656 290.264 123.971C290.264 124.651 290.447 125.201 290.81 125.602C291.173 126.007 291.717 126.212 292.428 126.212C292.848 126.212 293.279 126.127 293.589 126.005C293.589 126.005 293.648 125.976 293.622 125.907L293.421 125.351L293.424 125.352Z" fill="white"/>
<path fill-rule="evenodd" clip-rule="evenodd" d="M297.618 122.939C297.548 122.676 297.377 122.411 297.264 122.289C297.086 122.096 296.909 121.962 296.737 121.888C296.511 121.791 296.239 121.727 295.941 121.727C295.595 121.727 295.28 121.785 295.025 121.905C294.769 122.024 294.554 122.188 294.386 122.392C294.217 122.595 294.09 122.838 294.01 123.113C293.929 123.386 293.888 123.683 293.888 123.998C293.888 124.313 293.93 124.617 294.014 124.884C294.099 125.155 294.233 125.392 294.416 125.59C294.598 125.788 294.834 125.943 295.114 126.052C295.393 126.16 295.732 126.217 296.121 126.215C296.922 126.212 297.345 126.034 297.519 125.938C297.551 125.92 297.58 125.89 297.543 125.804L297.36 125.296C297.333 125.221 297.256 125.248 297.256 125.248C297.058 125.322 296.775 125.454 296.117 125.453C295.686 125.453 295.367 125.325 295.168 125.127C294.962 124.924 294.861 124.625 294.844 124.204L297.619 124.206C297.619 124.206 297.692 124.206 297.7 124.133C297.703 124.103 297.794 123.563 297.617 122.938M294.858 123.519C294.898 123.255 294.97 123.036 295.083 122.865C295.252 122.605 295.511 122.461 295.876 122.461C296.241 122.461 296.481 122.605 296.654 122.865C296.769 123.037 296.818 123.265 296.839 123.52H294.858V123.519Z" fill="white"/>
<path fill-rule="evenodd" clip-rule="evenodd" d="M275.389 122.939C275.32 122.676 275.148 122.411 275.035 122.289C274.857 122.096 274.682 121.962 274.508 121.888C274.281 121.791 274.01 121.727 273.713 121.727C273.366 121.727 273.051 121.785 272.796 121.905C272.54 122.024 272.325 122.188 272.157 122.392C271.988 122.595 271.862 122.838 271.781 123.113C271.7 123.386 271.66 123.683 271.66 123.998C271.66 124.313 271.702 124.617 271.785 124.884C271.87 125.155 272.004 125.392 272.187 125.59C272.37 125.788 272.605 125.943 272.885 126.052C273.164 126.16 273.504 126.217 273.892 126.215C274.693 126.212 275.117 126.034 275.291 125.938C275.322 125.92 275.351 125.89 275.314 125.804L275.132 125.296C275.104 125.221 275.027 125.248 275.027 125.248C274.829 125.322 274.546 125.454 273.888 125.453C273.458 125.453 273.138 125.325 272.939 125.127C272.734 124.924 272.633 124.625 272.615 124.204L275.39 124.206C275.39 124.206 275.463 124.206 275.471 124.133C275.474 124.103 275.566 123.563 275.388 122.938M272.629 123.519C272.669 123.255 272.741 123.036 272.853 122.865C273.024 122.605 273.282 122.461 273.646 122.461C274.01 122.461 274.252 122.605 274.425 122.865C274.539 123.037 274.589 123.265 274.609 123.52H272.628L272.629 123.519Z" fill="white"/>
<path d="M267.733 123.387C267.621 123.378 267.474 123.374 267.3 123.374C267.062 123.374 266.832 123.404 266.616 123.462C266.399 123.52 266.205 123.61 266.038 123.731C265.869 123.852 265.734 124.005 265.635 124.189C265.536 124.373 265.487 124.587 265.487 124.828C265.487 125.069 265.529 125.288 265.614 125.462C265.699 125.637 265.821 125.784 265.976 125.896C266.131 126.008 266.321 126.091 266.541 126.14C266.759 126.191 267.006 126.216 267.277 126.216C267.561 126.216 267.845 126.192 268.12 126.145C268.393 126.098 268.726 126.031 268.819 126.009C268.911 125.988 269.013 125.96 269.013 125.96C269.082 125.943 269.077 125.869 269.077 125.869V123.331C269.076 122.774 268.926 122.361 268.634 122.105C268.343 121.85 267.914 121.721 267.358 121.721C267.15 121.721 266.816 121.749 266.614 121.79C266.614 121.79 266.009 121.907 265.759 122.104C265.759 122.104 265.705 122.137 265.734 122.214L265.93 122.742C265.955 122.811 266.021 122.788 266.021 122.788C266.021 122.788 266.043 122.779 266.068 122.764C266.601 122.474 267.277 122.483 267.277 122.483C267.576 122.483 267.807 122.544 267.963 122.662C268.115 122.779 268.191 122.953 268.191 123.323V123.441C267.952 123.406 267.733 123.387 267.733 123.387ZM266.629 125.337C266.52 125.25 266.506 125.229 266.469 125.173C266.413 125.088 266.386 124.967 266.386 124.812C266.386 124.568 266.466 124.392 266.634 124.275C266.633 124.275 266.873 124.067 267.439 124.074C267.836 124.08 268.193 124.139 268.193 124.139V125.4C268.193 125.4 267.841 125.476 267.443 125.499C266.878 125.534 266.627 125.337 266.629 125.337Z" fill="white"/>
<path fill-rule="evenodd" clip-rule="evenodd" d="M290.121 121.957C290.143 121.894 290.098 121.864 290.079 121.857C290.032 121.84 289.796 121.789 289.614 121.777C289.265 121.756 289.072 121.815 288.898 121.892C288.725 121.97 288.535 122.095 288.43 122.238V121.9C288.43 121.854 288.397 121.816 288.349 121.816H287.637C287.591 121.816 287.558 121.854 287.558 121.9V126.041C287.558 126.087 287.595 126.125 287.643 126.125H288.372C288.418 126.125 288.456 126.087 288.456 126.041V123.972C288.456 123.694 288.487 123.418 288.548 123.244C288.608 123.071 288.69 122.935 288.791 122.836C288.892 122.737 289.008 122.669 289.134 122.63C289.263 122.59 289.406 122.577 289.506 122.577C289.652 122.577 289.811 122.615 289.811 122.615C289.865 122.62 289.895 122.587 289.913 122.54C289.96 122.413 290.095 122.033 290.121 121.957Z" fill="white"/>
<path fill-rule="evenodd" clip-rule="evenodd" d="M283.276 120.038C283.187 120.01 283.107 119.991 283.001 119.973C282.894 119.954 282.767 119.943 282.624 119.943C282.123 119.943 281.726 120.085 281.449 120.365C281.173 120.643 280.985 121.066 280.891 121.624L280.858 121.812H280.227C280.227 121.812 280.15 121.808 280.134 121.892L280.031 122.469C280.023 122.524 280.047 122.558 280.121 122.558H280.734L280.111 126.032C280.063 126.311 280.007 126.541 279.945 126.716C279.885 126.889 279.824 127.017 279.751 127.111C279.681 127.202 279.614 127.269 279.497 127.308C279.401 127.339 279.291 127.354 279.17 127.354C279.104 127.354 279.015 127.343 278.948 127.329C278.882 127.317 278.847 127.302 278.798 127.281C278.798 127.281 278.726 127.253 278.697 127.325C278.674 127.384 278.511 127.834 278.492 127.89C278.472 127.945 278.499 127.988 278.535 128.001C278.616 128.03 278.676 128.049 278.788 128.075C278.943 128.111 279.073 128.113 279.195 128.113C279.451 128.113 279.684 128.078 279.876 128.008C280.07 127.937 280.239 127.815 280.389 127.651C280.55 127.472 280.652 127.284 280.75 127.029C280.847 126.776 280.928 126.462 280.994 126.097L281.619 122.558H282.533C282.533 122.558 282.61 122.561 282.626 122.477L282.729 121.901C282.737 121.846 282.713 121.812 282.639 121.812H281.752C281.756 121.792 281.796 121.48 281.898 121.186C281.942 121.06 282.024 120.959 282.094 120.889C282.161 120.82 282.24 120.772 282.326 120.744C282.414 120.716 282.514 120.702 282.623 120.702C282.707 120.702 282.789 120.712 282.851 120.725C282.937 120.743 282.97 120.753 282.993 120.759C283.083 120.787 283.095 120.76 283.113 120.717L283.324 120.134C283.346 120.072 283.293 120.045 283.274 120.038" fill="white"/>
<path fill-rule="evenodd" clip-rule="evenodd" d="M270.876 126.041C270.876 126.087 270.842 126.126 270.796 126.126H270.059C270.013 126.126 269.98 126.088 269.98 126.041V120.117C269.98 120.071 270.013 120.033 270.059 120.033H270.796C270.842 120.033 270.876 120.071 270.876 120.117V126.041Z" fill="white"/>
</g>
<rect x="1098" y="43" width="72" height="72" rx="2" fill="white"/>
<rect x="1098.5" y="43.5" width="71" height="71" rx="1.5" stroke="#10B981" stroke-opacity="0.5"/>
<g clip-path="url(#clip1_99_25138)">
<path d="M1116.06 85.9935L1128.27 65.0844C1129.82 65.9977 1137.65 70.3272 1138.91 71.1505L1126.7 92.0608C1125.36 93.8253 1114.37 88.6713 1116.06 85.9922V85.9935Z" fill="#10B981"/>
<path d="M1151.15 85.993L1138.94 65.0852C1137.23 62.2437 1133.55 61.2111 1130.53 62.8894C1127.51 64.5676 1126.59 68.1829 1128.3 71.1513L1140.51 92.0616C1142.22 94.9018 1145.9 95.9344 1148.92 94.2562C1151.8 92.5779 1152.86 88.8345 1151.15 85.9955V85.993Z" fill="#10B981"/>
<path d="M1121.34 95.0644C1124.73 95.0644 1127.47 92.3877 1127.47 89.0858C1127.47 85.784 1124.73 83.1073 1121.34 83.1073C1117.96 83.1073 1115.21 85.784 1115.21 89.0858C1115.21 92.3877 1117.96 95.0644 1121.34 95.0644Z" fill="#0C8A60"/>
</g>
<rect x="339" y="321" width="72" height="72" rx="2" fill="white"/>
<rect x="339.5" y="321.5" width="71" height="71" rx="1.5" stroke="#10B981" stroke-opacity="0.5"/>
<g clip-path="url(#clip2_99_25138)">
<path d="M373.095 359.135C373.369 356.523 375.009 354.397 376.922 354.397C378.836 354.397 379.868 356.523 379.595 359.135C379.322 361.747 377.742 363.903 375.95 363.903C374.158 363.903 372.7 362.263 373.095 359.135ZM374.705 370.98C370.453 370.986 366.421 369.093 363.71 365.817C366.079 366.576 368.722 365.908 370.787 363.873C371.005 363.654 371.208 363.421 371.394 363.174C372.336 365.209 374.158 366.242 375.981 366.242C379.079 366.242 381.691 363.053 381.995 359.105C382.298 355.156 380.081 352.028 377.135 352.028C376.066 352.013 375.014 352.297 374.098 352.848L375.009 347.532C375.1 347.107 375 346.663 374.735 346.318C374.462 345.892 374.219 345.71 373.855 345.71H369.602C369.351 345.723 369.146 345.916 369.116 346.166C369.003 346.666 368.922 347.173 368.873 347.684C368.843 348.018 369.086 348.14 369.359 348.14H372.457C371.972 351.177 371 357.07 370.726 358.558C370.44 359.967 369.754 361.263 368.752 362.294C367.051 363.995 363.923 364.389 362.07 362.537C361.432 361.868 360.43 360.228 360.43 356.705C360.43 348.821 366.821 342.43 374.705 342.43C382.589 342.43 388.98 348.821 388.98 356.705C388.98 364.589 382.589 370.98 374.705 370.98ZM374.705 340C365.479 340 358 347.479 358 356.705C358 365.931 365.479 373.41 374.705 373.41C383.931 373.41 391.41 365.931 391.41 356.705C391.41 352.275 389.65 348.026 386.517 344.893C383.385 341.76 379.136 340 374.705 340Z" fill="#10B981"/>
</g>
<rect x="103" y="196" width="64" height="64" rx="2" fill="white"/>
<rect x="103.5" y="196.5" width="63" height="63" rx="1.5" stroke="#10B981" stroke-opacity="0.5"/>
<path d="M133.219 216.312L122.182 220.88C121.568 221.134 121.575 222.005 122.192 222.25L133.276 226.645C134.25 227.032 135.334 227.032 136.308 226.645L147.391 222.25C148.009 222.005 148.015 221.134 147.402 220.88L136.364 216.312C135.357 215.896 134.226 215.896 133.219 216.312Z" fill="#10B981"/>
<path d="M135.775 229.046V240.025C135.775 240.548 136.301 240.905 136.787 240.713L149.137 235.919C149.419 235.807 149.604 235.535 149.604 235.232V224.252C149.604 223.73 149.077 223.372 148.592 223.564L136.242 228.358C135.96 228.47 135.775 228.742 135.775 229.046Z" fill="#10B981"/>
<path d="M132.891 229.612L129.226 231.382L128.854 231.562L121.116 235.269C120.626 235.505 120 235.148 120 234.603V224.298C120 224.101 120.101 223.93 120.237 223.802C120.293 223.745 120.357 223.699 120.424 223.662C120.609 223.551 120.872 223.521 121.097 223.61L132.83 228.259C133.426 228.495 133.473 229.331 132.891 229.612Z" fill="#10B981"/>
<path d="M132.891 229.612L129.226 231.382L120.237 223.802C120.293 223.745 120.357 223.699 120.424 223.662C120.609 223.551 120.872 223.521 121.097 223.61L132.83 228.259C133.426 228.495 133.473 229.331 132.891 229.612Z" fill="black" fill-opacity="0.25"/>
<rect x="844" y="381" width="72" height="72" rx="2" fill="white"/>
<rect x="844.5" y="381.5" width="71" height="71" rx="1.5" stroke="#10B981" stroke-opacity="0.5"/>
<g clip-path="url(#clip3_99_25138)">
<path d="M865.484 421.114C865.484 422.518 865.792 423.597 866.195 424.249C866.723 425.103 867.511 425.466 868.315 425.466C869.351 425.466 870.299 425.209 872.125 422.682C873.589 420.657 875.313 417.815 876.474 416.033L878.438 413.014C879.803 410.917 881.383 408.587 883.195 407.007C884.674 405.717 886.269 405.001 887.874 405.001C890.57 405.001 893.137 406.563 895.102 409.492C897.252 412.701 898.296 416.742 898.296 420.912C898.296 423.391 897.807 425.213 896.976 426.652C896.173 428.044 894.607 429.434 891.973 429.434V425.466C894.228 425.466 894.791 423.393 894.791 421.021C894.791 417.642 894.003 413.891 892.267 411.211C891.035 409.31 889.439 408.149 887.682 408.149C885.783 408.149 884.254 409.582 882.536 412.136C881.622 413.493 880.685 415.147 879.632 417.014L878.473 419.067C876.145 423.196 875.555 424.136 874.391 425.687C872.351 428.404 870.608 429.434 868.315 429.434C865.594 429.434 863.873 428.255 862.807 426.48C861.938 425.033 861.51 423.135 861.51 420.972L865.484 421.114Z" fill="#10B981"/>
<path d="M864.641 409.772C866.462 406.964 869.091 405 872.107 405C873.853 405 875.589 405.517 877.401 406.997C879.384 408.615 881.497 411.281 884.134 415.672L885.079 417.248C887.361 421.05 888.66 423.006 889.42 423.928C890.397 425.112 891.081 425.466 891.97 425.466C894.226 425.466 894.788 423.393 894.788 421.021L898.294 420.911C898.294 423.391 897.805 425.212 896.973 426.651C896.17 428.043 894.604 429.434 891.97 429.434C890.333 429.434 888.882 429.078 887.278 427.565C886.045 426.403 884.603 424.34 883.494 422.485L880.195 416.974C878.54 414.208 877.021 412.146 876.142 411.212C875.197 410.208 873.982 408.995 872.042 408.995C870.473 408.995 869.14 410.097 868.024 411.781L864.641 409.772Z" fill="#10B981"/>
<path d="M872.045 408.995C870.475 408.995 869.142 410.097 868.027 411.781C866.449 414.162 865.484 417.708 865.484 421.113C865.484 422.518 865.793 423.596 866.196 424.249L862.807 426.48C861.938 425.033 861.51 423.134 861.51 420.971C861.51 417.038 862.59 412.938 864.643 409.772C866.465 406.964 869.094 405 872.109 405L872.045 408.995Z" fill="#10B981"/>
</g>
<rect x="983" y="208" width="56" height="56" rx="2" fill="white"/>
<rect x="983.5" y="208.5" width="55" height="55" rx="1.5" stroke="#10B981" stroke-opacity="0.5"/>
<path d="M1011 221C1009.01 221 1007.05 221.391 1005.21 222.151C1003.38 222.911 1001.71 224.025 1000.31 225.43C997.469 228.266 995.876 232.113 995.876 236.124C995.876 242.809 1000.22 248.481 1006.22 250.492C1006.98 250.613 1007.22 250.144 1007.22 249.736V247.18C1003.03 248.087 1002.14 245.153 1002.14 245.153C1001.44 243.399 1000.46 242.93 1000.46 242.93C999.082 241.992 1000.56 242.023 1000.56 242.023C1002.08 242.128 1002.88 243.58 1002.88 243.58C1004.19 245.879 1006.42 245.199 1007.28 244.836C1007.42 243.853 1007.81 243.187 1008.23 242.809C1004.87 242.431 1001.35 241.13 1001.35 235.368C1001.35 233.689 1001.93 232.343 1002.91 231.269C1002.76 230.891 1002.23 229.318 1003.06 227.277C1003.06 227.277 1004.33 226.868 1007.22 228.819C1008.41 228.486 1009.71 228.32 1011 228.32C1012.29 228.32 1013.59 228.486 1014.78 228.819C1017.67 226.868 1018.94 227.277 1018.94 227.277C1019.77 229.318 1019.24 230.891 1019.09 231.269C1020.07 232.343 1020.65 233.689 1020.65 235.368C1020.65 241.145 1017.11 242.416 1013.74 242.794C1014.28 243.263 1014.78 244.185 1014.78 245.592V249.736C1014.78 250.144 1015.02 250.628 1015.79 250.492C1021.8 248.465 1026.12 242.809 1026.12 236.124C1026.12 234.138 1025.73 232.171 1024.97 230.336C1024.21 228.501 1023.1 226.834 1021.69 225.43C1020.29 224.025 1018.62 222.911 1016.79 222.151C1014.95 221.391 1012.99 221 1011 221Z" fill="#10B981"/>
<defs>
<linearGradient id="paint0_linear_99_25138" x1="798.678" y1="288.279" x2="1060.43" y2="201.775" gradientUnits="userSpaceOnUse">
<stop stop-color="#10B981" stop-opacity="0.533333"/>
<stop offset="1" stop-color="#10B981" stop-opacity="0"/>
</linearGradient>
<linearGradient id="paint1_linear_99_25138" x1="635.5" y1="288" x2="631.82" y2="488.725" gradientUnits="userSpaceOnUse">
<stop stop-color="#10B981"/>
<stop offset="1" stop-color="#10B981" stop-opacity="0"/>
</linearGradient>
<linearGradient id="paint2_linear_99_25138" x1="485.978" y1="288.504" x2="386.936" y2="719.615" gradientUnits="userSpaceOnUse">
<stop stop-color="#10B981"/>
<stop offset="1" stop-color="#10B981" stop-opacity="0"/>
</linearGradient>
<linearGradient id="paint3_linear_99_25138" x1="432.035" y1="126.186" x2="6.22527" y2="39.0325" gradientUnits="userSpaceOnUse">
<stop stop-color="#10B981"/>
<stop offset="1" stop-color="#10B981" stop-opacity="0"/>
</linearGradient>
<linearGradient id="paint4_linear_99_25138" x1="1382.1" y1="-11.9393" x2="1315.8" y2="280.666" gradientUnits="userSpaceOnUse">
<stop stop-color="#10B981" stop-opacity="0"/>
<stop offset="1" stop-color="#10B981"/>
</linearGradient>
<linearGradient id="paint5_linear_99_25138" x1="481.837" y1="135.221" x2="77.767" y2="575.031" gradientUnits="userSpaceOnUse">
<stop stop-color="#10B981"/>
<stop offset="1" stop-color="#10B981" stop-opacity="0"/>
</linearGradient>
<linearGradient id="paint6_linear_99_25138" x1="1280" y1="125.5" x2="1170.46" y2="417.865" gradientUnits="userSpaceOnUse">
<stop stop-color="#10B981"/>
<stop offset="1" stop-color="#10B981" stop-opacity="0"/>
</linearGradient>
<clipPath id="clip0_99_25138">
<rect width="47.8882" height="33.5192" fill="white" transform="translate(254.737 108.24)"/>
</clipPath>
<clipPath id="clip1_99_25138">
<rect width="36.7872" height="36.7872" fill="white" transform="translate(1115.21 60.2128)"/>
</clipPath>
<clipPath id="clip2_99_25138">
<rect width="33.4102" height="33.4102" fill="white" transform="translate(358 340)"/>
</clipPath>
<clipPath id="clip3_99_25138">
<rect width="36.7925" height="24.4341" fill="white" transform="translate(861.506 405)"/>
</clipPath>
</defs>
</svg>
