<svg width="1369" height="532" viewBox="0 0 1369 532" fill="none" xmlns="http://www.w3.org/2000/svg">
<g filter="url(#filter0_d_2197_30678)">
<path d="M780 291V419.046C780 420.15 780.895 421.046 782 421.046H1202.81H1306C1307.1 421.046 1308 421.941 1308 423.046V498" stroke="url(#paint0_linear_2197_30678)" stroke-width="2" stroke-dasharray="6 8"/>
<path d="M680 291V485" stroke="url(#paint1_linear_2197_30678)" stroke-width="2" stroke-dasharray="6 8"/>
<path d="M581 291V358.981C581 360.085 580.105 360.981 579 360.981H214C212.895 360.981 212 361.876 212 362.981V738" stroke="url(#paint2_linear_2197_30678)" stroke-width="2" stroke-dasharray="6 8"/>
<path d="M446.002 130.19H172.801C171.696 130.19 170.801 129.295 170.801 128.19V49.0127C170.801 47.9081 169.905 47.0127 168.801 47.0127H45" stroke="url(#paint3_linear_2197_30678)" stroke-width="2" stroke-dasharray="6 8"/>
<path d="M926 162H1176.89C1177.99 162 1178.89 161.105 1178.89 160V6C1178.89 4.89543 1179.78 4 1180.89 4H1363" stroke="url(#paint4_linear_2197_30678)" stroke-width="2" stroke-dasharray="6 8"/>
<path d="M446 231H9.00001C7.89544 231 7 231.895 7 233V419" stroke="url(#paint5_linear_2197_30678)" stroke-width="2" stroke-dasharray="6 8"/>
<path d="M926 239H1213C1214.1 239 1215 239.895 1215 241V344" stroke="url(#paint6_linear_2197_30678)" stroke-width="2" stroke-dasharray="6 8"/>
<rect x="288" y="92" width="72" height="72" rx="2" fill="white"/>
<rect x="288.5" y="92.5" width="71" height="71" rx="1.5" stroke="#10B981" stroke-opacity="0.5"/>
<g clip-path="url(#clip0_2197_30678)">
<path d="M319.664 114.896C321.209 113.287 323.359 112.29 325.736 112.29C328.898 112.29 331.656 114.052 333.124 116.669C334.401 116.099 335.813 115.782 337.299 115.782C343.001 115.782 347.624 120.445 347.624 126.196C347.624 131.947 343.002 136.611 337.299 136.611C336.603 136.611 335.924 136.54 335.265 136.408C333.972 138.715 331.508 140.273 328.678 140.273C327.494 140.273 326.374 140 325.377 139.512C324.066 142.597 321.011 144.76 317.451 144.76C313.891 144.76 310.583 142.414 309.371 139.124C308.841 139.235 308.292 139.294 307.728 139.294C303.315 139.294 299.737 135.679 299.737 131.219C299.737 128.229 301.343 125.619 303.733 124.223C303.241 123.091 302.968 121.842 302.968 120.529C302.968 115.4 307.133 111.24 312.268 111.24C315.284 111.24 317.964 112.674 319.664 114.896Z" fill="#10B981"/>
<path d="M306.672 128.622C306.642 128.7 306.683 128.716 306.692 128.73C306.783 128.796 306.873 128.843 306.965 128.896C307.454 129.154 307.916 129.23 308.398 129.23C309.38 129.23 309.99 128.708 309.99 127.867V127.851C309.99 127.073 309.301 126.79 308.656 126.586L308.571 126.559C308.083 126.401 307.663 126.263 307.663 125.943V125.927C307.663 125.652 307.909 125.45 308.289 125.45C308.713 125.45 309.214 125.591 309.537 125.77C309.537 125.77 309.633 125.832 309.667 125.739C309.687 125.689 309.85 125.25 309.867 125.201C309.885 125.15 309.853 125.111 309.819 125.091C309.449 124.866 308.939 124.713 308.411 124.713H308.313C307.413 124.713 306.786 125.257 306.786 126.035V126.051C306.786 126.87 307.479 127.138 308.127 127.322L308.231 127.354C308.704 127.499 309.112 127.625 309.112 127.957V127.974C309.112 128.278 308.847 128.505 308.42 128.505C308.254 128.505 307.726 128.501 307.155 128.141C307.087 128.1 307.047 128.071 306.993 128.039C306.965 128.021 306.894 127.99 306.863 128.083L306.67 128.621L306.672 128.622Z" fill="white"/>
<path d="M321.053 128.622C321.023 128.7 321.064 128.716 321.073 128.73C321.163 128.796 321.254 128.843 321.346 128.896C321.835 129.154 322.296 129.23 322.779 129.23C323.761 129.23 324.371 128.708 324.371 127.867V127.851C324.371 127.073 323.682 126.79 323.036 126.586L322.952 126.559C322.464 126.401 322.044 126.263 322.044 125.943V125.927C322.044 125.652 322.29 125.45 322.67 125.45C323.093 125.45 323.595 125.591 323.918 125.77C323.918 125.77 324.014 125.832 324.048 125.739C324.067 125.689 324.231 125.25 324.248 125.201C324.266 125.15 324.234 125.111 324.199 125.091C323.83 124.866 323.32 124.713 322.792 124.713H322.694C321.794 124.713 321.167 125.257 321.167 126.035V126.051C321.167 126.87 321.86 127.138 322.508 127.322L322.612 127.354C323.085 127.499 323.494 127.625 323.494 127.957V127.974C323.494 128.278 323.229 128.505 322.801 128.505C322.635 128.505 322.107 128.501 321.536 128.141C321.467 128.1 321.427 128.072 321.374 128.039C321.357 128.028 321.273 127.995 321.245 128.083L321.051 128.621L321.053 128.622Z" fill="white"/>
<path d="M331.69 126.094C331.61 125.821 331.484 125.582 331.317 125.382C331.151 125.181 330.938 125.02 330.687 124.903C330.437 124.786 330.14 124.727 329.809 124.727C329.477 124.727 329.179 124.787 328.929 124.903C328.679 125.019 328.466 125.181 328.3 125.382C328.132 125.582 328.007 125.822 327.927 126.094C327.847 126.364 327.806 126.661 327.806 126.974C327.806 127.288 327.847 127.585 327.927 127.856C328.008 128.128 328.132 128.367 328.3 128.568C328.466 128.769 328.679 128.929 328.93 129.043C329.181 129.157 329.477 129.215 329.81 129.215C330.143 129.215 330.437 129.157 330.688 129.043C330.938 128.929 331.151 128.768 331.319 128.568C331.485 128.368 331.612 128.128 331.691 127.856C331.772 127.585 331.813 127.289 331.813 126.974C331.813 126.66 331.772 126.364 331.691 126.094M330.871 126.974C330.871 127.449 330.782 127.825 330.608 128.089C330.435 128.351 330.174 128.479 329.81 128.479C329.446 128.479 329.186 128.351 329.015 128.089C328.842 127.825 328.755 127.449 328.755 126.974C328.755 126.5 328.842 126.126 329.014 125.864C329.185 125.605 329.445 125.478 329.81 125.478C330.175 125.478 330.435 125.604 330.608 125.864C330.783 126.126 330.871 126.5 330.871 126.974Z" fill="white"/>
<path fill-rule="evenodd" clip-rule="evenodd" d="M338.424 128.352C338.397 128.273 338.318 128.303 338.318 128.303C338.199 128.349 338.072 128.39 337.937 128.411C337.801 128.433 337.65 128.443 337.488 128.443C337.092 128.443 336.776 128.325 336.55 128.092C336.324 127.858 336.196 127.481 336.197 126.971C336.198 126.507 336.311 126.158 336.512 125.892C336.712 125.628 337.017 125.491 337.422 125.491C337.76 125.491 338.018 125.531 338.288 125.615C338.288 125.615 338.353 125.643 338.383 125.559C338.456 125.359 338.508 125.217 338.585 124.998C338.606 124.936 338.554 124.909 338.533 124.902C338.427 124.86 338.177 124.792 337.986 124.763C337.81 124.736 337.602 124.722 337.371 124.722C337.027 124.722 336.72 124.781 336.457 124.898C336.195 125.014 335.973 125.175 335.797 125.376C335.621 125.577 335.487 125.817 335.398 126.088C335.309 126.359 335.264 126.656 335.264 126.971C335.264 127.651 335.447 128.201 335.81 128.602C336.173 129.007 336.717 129.212 337.428 129.212C337.848 129.212 338.279 129.127 338.589 129.005C338.589 129.005 338.648 128.976 338.622 128.907L338.421 128.351L338.424 128.352Z" fill="white"/>
<path fill-rule="evenodd" clip-rule="evenodd" d="M342.618 125.939C342.548 125.676 342.377 125.411 342.264 125.289C342.086 125.096 341.909 124.962 341.737 124.888C341.511 124.791 341.239 124.727 340.941 124.727C340.595 124.727 340.28 124.785 340.025 124.905C339.769 125.024 339.554 125.188 339.386 125.392C339.217 125.595 339.09 125.838 339.01 126.113C338.929 126.386 338.888 126.683 338.888 126.998C338.888 127.313 338.93 127.617 339.014 127.884C339.099 128.155 339.233 128.392 339.416 128.59C339.598 128.788 339.834 128.943 340.114 129.052C340.393 129.16 340.732 129.217 341.121 129.215C341.922 129.212 342.345 129.034 342.519 128.938C342.551 128.92 342.58 128.89 342.543 128.804L342.36 128.296C342.333 128.221 342.256 128.248 342.256 128.248C342.058 128.322 341.775 128.454 341.117 128.453C340.686 128.453 340.367 128.325 340.168 128.127C339.962 127.924 339.861 127.625 339.844 127.204L342.619 127.206C342.619 127.206 342.692 127.206 342.7 127.133C342.703 127.103 342.794 126.563 342.617 125.938M339.858 126.519C339.898 126.255 339.97 126.036 340.083 125.865C340.252 125.605 340.511 125.461 340.876 125.461C341.241 125.461 341.481 125.605 341.654 125.865C341.769 126.037 341.818 126.265 341.839 126.52H339.858V126.519Z" fill="white"/>
<path fill-rule="evenodd" clip-rule="evenodd" d="M320.389 125.939C320.32 125.676 320.148 125.411 320.035 125.289C319.857 125.096 319.682 124.962 319.508 124.888C319.281 124.791 319.01 124.727 318.713 124.727C318.366 124.727 318.051 124.785 317.796 124.905C317.54 125.024 317.325 125.188 317.157 125.392C316.988 125.595 316.862 125.838 316.781 126.113C316.7 126.386 316.66 126.683 316.66 126.998C316.66 127.313 316.702 127.617 316.785 127.884C316.87 128.155 317.004 128.392 317.187 128.59C317.37 128.788 317.605 128.943 317.885 129.052C318.164 129.16 318.504 129.217 318.892 129.215C319.693 129.212 320.117 129.034 320.291 128.938C320.322 128.92 320.351 128.89 320.314 128.804L320.132 128.296C320.104 128.221 320.027 128.248 320.027 128.248C319.829 128.322 319.546 128.454 318.888 128.453C318.458 128.453 318.138 128.325 317.939 128.127C317.734 127.924 317.633 127.625 317.615 127.204L320.39 127.206C320.39 127.206 320.463 127.206 320.471 127.133C320.474 127.103 320.566 126.563 320.388 125.938M317.629 126.519C317.669 126.255 317.741 126.036 317.853 125.865C318.024 125.605 318.282 125.461 318.646 125.461C319.01 125.461 319.252 125.605 319.425 125.865C319.539 126.037 319.589 126.265 319.609 126.52H317.628L317.629 126.519Z" fill="white"/>
<path d="M312.733 126.387C312.621 126.378 312.474 126.374 312.3 126.374C312.062 126.374 311.832 126.404 311.616 126.462C311.399 126.52 311.205 126.61 311.038 126.731C310.869 126.852 310.734 127.005 310.635 127.189C310.536 127.373 310.487 127.587 310.487 127.828C310.487 128.069 310.529 128.288 310.614 128.462C310.699 128.637 310.821 128.784 310.976 128.896C311.131 129.008 311.321 129.091 311.541 129.14C311.759 129.191 312.006 129.216 312.277 129.216C312.561 129.216 312.845 129.192 313.12 129.145C313.393 129.098 313.726 129.031 313.819 129.009C313.911 128.988 314.013 128.96 314.013 128.96C314.082 128.943 314.077 128.869 314.077 128.869V126.331C314.076 125.774 313.926 125.361 313.634 125.105C313.343 124.85 312.914 124.721 312.358 124.721C312.15 124.721 311.816 124.749 311.614 124.79C311.614 124.79 311.009 124.907 310.759 125.104C310.759 125.104 310.705 125.137 310.734 125.214L310.93 125.742C310.955 125.811 311.021 125.788 311.021 125.788C311.021 125.788 311.043 125.779 311.068 125.764C311.601 125.474 312.277 125.483 312.277 125.483C312.576 125.483 312.807 125.544 312.963 125.662C313.115 125.779 313.191 125.953 313.191 126.323V126.441C312.952 126.406 312.733 126.387 312.733 126.387ZM311.629 128.337C311.52 128.25 311.506 128.229 311.469 128.173C311.413 128.088 311.386 127.967 311.386 127.812C311.386 127.568 311.466 127.392 311.634 127.275C311.633 127.275 311.873 127.067 312.439 127.074C312.836 127.08 313.193 127.139 313.193 127.139V128.4C313.193 128.4 312.841 128.476 312.443 128.499C311.878 128.534 311.627 128.337 311.629 128.337Z" fill="white"/>
<path fill-rule="evenodd" clip-rule="evenodd" d="M335.121 124.957C335.143 124.894 335.098 124.864 335.079 124.857C335.032 124.84 334.796 124.789 334.614 124.777C334.265 124.756 334.072 124.815 333.898 124.892C333.725 124.97 333.535 125.095 333.43 125.238V124.9C333.43 124.854 333.397 124.816 333.349 124.816H332.637C332.591 124.816 332.558 124.854 332.558 124.9V129.041C332.558 129.087 332.595 129.124 332.643 129.124H333.372C333.418 129.124 333.456 129.087 333.456 129.041V126.972C333.456 126.694 333.487 126.418 333.548 126.244C333.608 126.071 333.69 125.935 333.791 125.836C333.892 125.737 334.008 125.669 334.134 125.63C334.263 125.59 334.406 125.577 334.506 125.577C334.652 125.577 334.811 125.615 334.811 125.615C334.865 125.62 334.895 125.587 334.913 125.54C334.96 125.413 335.095 125.033 335.121 124.957Z" fill="white"/>
<path fill-rule="evenodd" clip-rule="evenodd" d="M328.276 123.038C328.187 123.01 328.107 122.991 328.001 122.973C327.894 122.954 327.767 122.943 327.624 122.943C327.123 122.943 326.726 123.085 326.449 123.365C326.173 123.643 325.985 124.066 325.891 124.624L325.858 124.812H325.227C325.227 124.812 325.15 124.808 325.134 124.892L325.031 125.469C325.023 125.524 325.047 125.558 325.121 125.558H325.734L325.111 129.032C325.063 129.311 325.007 129.541 324.945 129.716C324.885 129.889 324.824 130.017 324.751 130.111C324.681 130.202 324.614 130.269 324.497 130.308C324.401 130.339 324.291 130.354 324.17 130.354C324.104 130.354 324.015 130.343 323.948 130.329C323.882 130.317 323.847 130.302 323.798 130.281C323.798 130.281 323.726 130.253 323.697 130.325C323.674 130.384 323.511 130.834 323.492 130.89C323.472 130.945 323.499 130.988 323.535 131.001C323.616 131.03 323.676 131.049 323.788 131.075C323.943 131.111 324.073 131.113 324.195 131.113C324.451 131.113 324.684 131.078 324.876 131.008C325.07 130.937 325.239 130.815 325.389 130.651C325.55 130.472 325.652 130.284 325.75 130.029C325.847 129.776 325.928 129.462 325.994 129.097L326.619 125.558H327.533C327.533 125.558 327.61 125.561 327.626 125.477L327.729 124.901C327.737 124.846 327.713 124.812 327.639 124.812H326.752C326.756 124.792 326.796 124.48 326.898 124.186C326.942 124.06 327.024 123.959 327.094 123.889C327.161 123.82 327.24 123.772 327.326 123.744C327.414 123.716 327.514 123.702 327.623 123.702C327.707 123.702 327.789 123.712 327.851 123.725C327.937 123.743 327.97 123.753 327.993 123.759C328.083 123.787 328.095 123.76 328.113 123.717L328.324 123.134C328.346 123.072 328.293 123.045 328.274 123.038" fill="white"/>
<path fill-rule="evenodd" clip-rule="evenodd" d="M315.876 129.041C315.876 129.087 315.842 129.126 315.796 129.126H315.059C315.013 129.126 314.98 129.088 314.98 129.041V123.117C314.98 123.071 315.013 123.033 315.059 123.033H315.796C315.842 123.033 315.876 123.071 315.876 123.117V129.041Z" fill="white"/>
</g>
<rect x="1143" y="46" width="72" height="72" rx="2" fill="white"/>
<rect x="1143.5" y="46.5" width="71" height="71" rx="1.5" stroke="#10B981" stroke-opacity="0.5"/>
<g clip-path="url(#clip1_2197_30678)">
<path d="M1161.06 88.9935L1173.27 68.0844C1174.82 68.9977 1182.65 73.3272 1183.91 74.1505L1171.7 95.0608C1170.36 96.8253 1159.37 91.6713 1161.06 88.9922V88.9935Z" fill="#10B981"/>
<path d="M1196.15 88.993L1183.94 68.0852C1182.23 65.2437 1178.55 64.2111 1175.53 65.8894C1172.51 67.5676 1171.59 71.1829 1173.3 74.1513L1185.51 95.0616C1187.22 97.9018 1190.9 98.9344 1193.92 97.2562C1196.8 95.5779 1197.86 91.8345 1196.15 88.9955V88.993Z" fill="#10B981"/>
<path d="M1166.34 98.0644C1169.73 98.0644 1172.47 95.3877 1172.47 92.0858C1172.47 88.784 1169.73 86.1073 1166.34 86.1073C1162.96 86.1073 1160.21 88.784 1160.21 92.0858C1160.21 95.3877 1162.96 98.0644 1166.34 98.0644Z" fill="#0C8A60"/>
</g>
<rect x="249" y="324" width="72" height="72" rx="2" fill="white"/>
<rect x="249.5" y="324.5" width="71" height="71" rx="1.5" stroke="#10B981" stroke-opacity="0.5"/>
<g clip-path="url(#clip2_2197_30678)">
<path d="M283.095 362.135C283.369 359.523 285.009 357.397 286.922 357.397C288.836 357.397 289.868 359.523 289.595 362.135C289.322 364.747 287.742 366.903 285.95 366.903C284.158 366.903 282.7 365.263 283.095 362.135ZM284.705 373.98C280.453 373.986 276.421 372.093 273.71 368.817C276.079 369.576 278.722 368.908 280.787 366.873C281.005 366.654 281.208 366.421 281.394 366.174C282.336 368.209 284.158 369.242 285.981 369.242C289.079 369.242 291.691 366.053 291.995 362.105C292.298 358.156 290.081 355.028 287.135 355.028C286.066 355.013 285.014 355.297 284.098 355.848L285.009 350.532C285.1 350.107 285 349.663 284.735 349.318C284.462 348.892 284.219 348.71 283.855 348.71H279.602C279.351 348.723 279.146 348.916 279.116 349.166C279.003 349.666 278.922 350.173 278.873 350.684C278.843 351.018 279.086 351.14 279.359 351.14H282.457C281.972 354.177 281 360.07 280.726 361.558C280.44 362.967 279.754 364.263 278.752 365.294C277.051 366.995 273.923 367.389 272.07 365.537C271.432 364.868 270.43 363.228 270.43 359.705C270.43 351.821 276.821 345.43 284.705 345.43C292.589 345.43 298.98 351.821 298.98 359.705C298.98 367.589 292.589 373.98 284.705 373.98ZM284.705 343C275.479 343 268 350.479 268 359.705C268 368.931 275.479 376.41 284.705 376.41C293.931 376.41 301.41 368.931 301.41 359.705C301.41 355.275 299.65 351.026 296.517 347.893C293.385 344.76 289.136 343 284.705 343Z" fill="#10B981"/>
</g>
<rect x="148" y="199" width="64" height="64" rx="2" fill="white"/>
<rect x="148.5" y="199.5" width="63" height="63" rx="1.5" stroke="#10B981" stroke-opacity="0.5"/>
<path d="M178.219 219.312L167.182 223.88C166.568 224.134 166.575 225.005 167.192 225.25L178.276 229.645C179.25 230.032 180.334 230.032 181.308 229.645L192.391 225.25C193.009 225.005 193.015 224.134 192.402 223.88L181.364 219.312C180.357 218.896 179.226 218.896 178.219 219.312Z" fill="#10B981"/>
<path d="M180.775 232.046V243.025C180.775 243.548 181.301 243.905 181.787 243.713L194.137 238.919C194.419 238.807 194.604 238.535 194.604 238.232V227.252C194.604 226.73 194.077 226.372 193.592 226.564L181.242 231.358C180.96 231.47 180.775 231.742 180.775 232.046Z" fill="#10B981"/>
<path d="M177.891 232.612L174.226 234.382L173.854 234.562L166.116 238.269C165.626 238.505 165 238.148 165 237.603V227.298C165 227.101 165.101 226.93 165.237 226.802C165.293 226.745 165.357 226.699 165.424 226.662C165.609 226.551 165.872 226.521 166.097 226.61L177.83 231.259C178.426 231.495 178.473 232.331 177.891 232.612Z" fill="#10B981"/>
<path d="M177.891 232.612L174.226 234.382L165.237 226.802C165.293 226.745 165.357 226.699 165.424 226.662C165.609 226.551 165.872 226.521 166.097 226.61L177.83 231.259C178.426 231.495 178.473 232.331 177.891 232.612Z" fill="black" fill-opacity="0.25"/>
<rect x="1179" y="384" width="72" height="72" rx="2" fill="white"/>
<rect x="1179.5" y="384.5" width="71" height="71" rx="1.5" stroke="#10B981" stroke-opacity="0.5"/>
<g clip-path="url(#clip3_2197_30678)">
<path d="M1200.48 424.114C1200.48 425.518 1200.79 426.597 1201.19 427.249C1201.72 428.103 1202.51 428.466 1203.31 428.466C1204.35 428.466 1205.3 428.209 1207.13 425.682C1208.59 423.657 1210.31 420.815 1211.47 419.033L1213.44 416.014C1214.8 413.917 1216.38 411.587 1218.19 410.007C1219.67 408.717 1221.27 408.001 1222.87 408.001C1225.57 408.001 1228.14 409.563 1230.1 412.492C1232.25 415.701 1233.3 419.742 1233.3 423.912C1233.3 426.391 1232.81 428.213 1231.98 429.652C1231.17 431.044 1229.61 432.434 1226.97 432.434V428.466C1229.23 428.466 1229.79 426.393 1229.79 424.021C1229.79 420.642 1229 416.891 1227.27 414.211C1226.04 412.31 1224.44 411.149 1222.68 411.149C1220.78 411.149 1219.25 412.582 1217.54 415.136C1216.62 416.493 1215.68 418.147 1214.63 420.014L1213.47 422.067C1211.14 426.196 1210.56 427.136 1209.39 428.687C1207.35 431.404 1205.61 432.434 1203.31 432.434C1200.59 432.434 1198.87 431.255 1197.81 429.48C1196.94 428.033 1196.51 426.135 1196.51 423.972L1200.48 424.114Z" fill="#10B981"/>
<path d="M1199.64 412.772C1201.46 409.964 1204.09 408 1207.11 408C1208.85 408 1210.59 408.517 1212.4 409.997C1214.38 411.615 1216.5 414.281 1219.13 418.672L1220.08 420.248C1222.36 424.05 1223.66 426.006 1224.42 426.928C1225.4 428.112 1226.08 428.466 1226.97 428.466C1229.23 428.466 1229.79 426.393 1229.79 424.021L1233.29 423.911C1233.29 426.391 1232.81 428.212 1231.97 429.651C1231.17 431.043 1229.6 432.434 1226.97 432.434C1225.33 432.434 1223.88 432.078 1222.28 430.565C1221.05 429.403 1219.6 427.34 1218.49 425.485L1215.2 419.974C1213.54 417.208 1212.02 415.146 1211.14 414.212C1210.2 413.208 1208.98 411.995 1207.04 411.995C1205.47 411.995 1204.14 413.097 1203.02 414.781L1199.64 412.772Z" fill="#10B981"/>
<path d="M1207.04 411.995C1205.48 411.995 1204.14 413.097 1203.03 414.781C1201.45 417.162 1200.48 420.708 1200.48 424.113C1200.48 425.518 1200.79 426.596 1201.2 427.249L1197.81 429.48C1196.94 428.033 1196.51 426.134 1196.51 423.971C1196.51 420.038 1197.59 415.938 1199.64 412.772C1201.46 409.964 1204.09 408 1207.11 408L1207.04 411.995Z" fill="#10B981"/>
</g>
<rect x="1028" y="211" width="56" height="56" rx="2" fill="white"/>
<rect x="1028.5" y="211.5" width="55" height="55" rx="1.5" stroke="#10B981" stroke-opacity="0.5"/>
<path d="M1056 224C1054.01 224 1052.05 224.391 1050.21 225.151C1048.38 225.911 1046.71 227.025 1045.31 228.43C1042.47 231.266 1040.88 235.113 1040.88 239.124C1040.88 245.809 1045.22 251.481 1051.22 253.492C1051.98 253.613 1052.22 253.144 1052.22 252.736V250.18C1048.03 251.087 1047.14 248.153 1047.14 248.153C1046.44 246.399 1045.46 245.93 1045.46 245.93C1044.08 244.992 1045.56 245.023 1045.56 245.023C1047.08 245.128 1047.88 246.58 1047.88 246.58C1049.19 248.879 1051.42 248.199 1052.28 247.836C1052.42 246.853 1052.81 246.187 1053.23 245.809C1049.87 245.431 1046.35 244.13 1046.35 238.368C1046.35 236.689 1046.93 235.343 1047.91 234.269C1047.76 233.891 1047.23 232.318 1048.06 230.277C1048.06 230.277 1049.33 229.868 1052.22 231.819C1053.41 231.486 1054.71 231.32 1056 231.32C1057.29 231.32 1058.59 231.486 1059.78 231.819C1062.67 229.868 1063.94 230.277 1063.94 230.277C1064.77 232.318 1064.24 233.891 1064.09 234.269C1065.07 235.343 1065.65 236.689 1065.65 238.368C1065.65 244.145 1062.11 245.416 1058.74 245.794C1059.28 246.263 1059.78 247.185 1059.78 248.592V252.736C1059.78 253.144 1060.02 253.628 1060.79 253.492C1066.8 251.465 1071.12 245.809 1071.12 239.124C1071.12 237.138 1070.73 235.171 1069.97 233.336C1069.21 231.501 1068.1 229.834 1066.69 228.43C1065.29 227.025 1063.62 225.911 1061.79 225.151C1059.95 224.391 1057.99 224 1056 224Z" fill="#10B981"/>
</g>
<defs>
<filter id="filter0_d_2197_30678" x="0" y="0" width="1369" height="747" filterUnits="userSpaceOnUse" color-interpolation-filters="sRGB">
<feFlood flood-opacity="0" result="BackgroundImageFix"/>
<feColorMatrix in="SourceAlpha" type="matrix" values="0 0 0 0 0 0 0 0 0 0 0 0 0 0 0 0 0 0 127 0" result="hardAlpha"/>
<feMorphology radius="2" operator="erode" in="SourceAlpha" result="effect1_dropShadow_2197_30678"/>
<feOffset dy="3"/>
<feGaussianBlur stdDeviation="4"/>
<feComposite in2="hardAlpha" operator="out"/>
<feColorMatrix type="matrix" values="0 0 0 0 0.796078 0 0 0 0 0.835294 0 0 0 0 0.882353 0 0 0 0.6 0"/>
<feBlend mode="normal" in2="BackgroundImageFix" result="effect1_dropShadow_2197_30678"/>
<feBlend mode="normal" in="SourceGraphic" in2="effect1_dropShadow_2197_30678" result="shape"/>
</filter>
<linearGradient id="paint0_linear_2197_30678" x1="866.879" y1="291.279" x2="1196.08" y2="142.848" gradientUnits="userSpaceOnUse">
<stop stop-color="#10B981" stop-opacity="0.533333"/>
<stop offset="1" stop-color="#10B981" stop-opacity="0"/>
</linearGradient>
<linearGradient id="paint1_linear_2197_30678" x1="680.5" y1="291" x2="676.82" y2="491.725" gradientUnits="userSpaceOnUse">
<stop stop-color="#10B981"/>
<stop offset="1" stop-color="#10B981" stop-opacity="0"/>
</linearGradient>
<linearGradient id="paint2_linear_2197_30678" x1="512.127" y1="291.504" x2="438.448" y2="733.075" gradientUnits="userSpaceOnUse">
<stop stop-color="#10B981"/>
<stop offset="1" stop-color="#10B981" stop-opacity="0"/>
</linearGradient>
<linearGradient id="paint3_linear_2197_30678" x1="477.035" y1="129.186" x2="51.2253" y2="42.0325" gradientUnits="userSpaceOnUse">
<stop stop-color="#10B981"/>
<stop offset="1" stop-color="#10B981" stop-opacity="0"/>
</linearGradient>
<linearGradient id="paint4_linear_2197_30678" x1="1427.1" y1="-8.9393" x2="1360.8" y2="283.666" gradientUnits="userSpaceOnUse">
<stop stop-color="#10B981" stop-opacity="0"/>
<stop offset="1" stop-color="#10B981"/>
</linearGradient>
<linearGradient id="paint5_linear_2197_30678" x1="546.817" y1="138.221" x2="159.523" y2="663.96" gradientUnits="userSpaceOnUse">
<stop stop-color="#10B981"/>
<stop offset="1" stop-color="#10B981" stop-opacity="0"/>
</linearGradient>
<linearGradient id="paint6_linear_2197_30678" x1="1292.07" y1="128.239" x2="1174.67" y2="414.712" gradientUnits="userSpaceOnUse">
<stop stop-color="#10B981"/>
<stop offset="1" stop-color="#10B981" stop-opacity="0"/>
</linearGradient>
<clipPath id="clip0_2197_30678">
<rect width="47.8882" height="33.5192" fill="white" transform="translate(299.737 111.24)"/>
</clipPath>
<clipPath id="clip1_2197_30678">
<rect width="36.7872" height="36.7872" fill="white" transform="translate(1160.21 63.2128)"/>
</clipPath>
<clipPath id="clip2_2197_30678">
<rect width="33.4102" height="33.4102" fill="white" transform="translate(268 343)"/>
</clipPath>
<clipPath id="clip3_2197_30678">
<rect width="36.7925" height="24.4341" fill="white" transform="translate(1196.51 408)"/>
</clipPath>
</defs>
</svg>
