<svg width="200" height="32" viewBox="0 0 200 32" fill="none" xmlns="http://www.w3.org/2000/svg">
<g clip-path="url(#clip0_21_1048)">
<path fill-rule="evenodd" clip-rule="evenodd" d="M37.7494 -0.118835H0.416046V31.8812H37.7494V-0.118835ZM11.0611 4.8C12.9598 4.8 14.4104 5.35466 15.4131 6.464C16.4158 7.57333 16.9171 9.30133 16.9171 11.648V11.712C16.9171 12.9067 16.7891 13.92 16.5331 14.752C16.2984 15.5627 15.9358 16.224 15.4451 16.736C14.9758 17.248 14.3678 17.6213 13.6211 17.856C12.8958 18.0907 12.0318 18.208 11.0291 18.208H10.0051V27.2H5.5251V4.8H11.0611ZM10.0051 18.016H11.0291C11.5411 18.016 11.9038 17.8773 12.1171 17.6C12.3304 17.3013 12.4371 16.8213 12.4371 16.16V6.88C12.4371 6.21867 12.3304 5.73867 12.1171 5.44C11.9038 5.14133 11.5411 4.992 11.0291 4.992H10.0051V18.016ZM23.6164 4.80001L25.8564 24.928H25.9204L28.0324 4.80001H32.6404V27.2H28.1604V8.06401H28.0964L26.0484 27.2H21.4724L19.3604 8.06401H19.2964V27.2H19.0724V4.80001H23.6164Z" fill="#CBD5E1"/>
</g>
<path d="M194.155 12.0364V8.78687C194.155 7.48705 193.646 6.83714 192.626 6.83714C191.632 6.83714 191.135 7.48705 191.135 8.78687V10.5837C191.135 10.9915 191.173 11.3483 191.25 11.6541C191.326 11.9345 191.479 12.2021 191.709 12.457C191.938 12.7118 192.269 12.9794 192.703 13.2598C193.161 13.5147 193.76 13.8205 194.499 14.1773L195.799 14.7508C196.513 15.0821 197.112 15.4516 197.596 15.8594C198.08 16.2672 198.463 16.7642 198.743 17.3504C199.049 17.9111 199.265 18.5738 199.393 19.3384C199.52 20.103 199.584 21.0078 199.584 22.0527V22.6644C199.584 24.9072 198.972 26.6403 197.749 27.8637C196.526 29.087 194.793 29.6987 192.55 29.6987C190.332 29.6987 188.637 29.0998 187.465 27.9019C186.293 26.704 185.707 24.9582 185.707 22.6644V19.8354H191.059V23.0849C191.059 24.3847 191.581 25.0347 192.626 25.0347C193.671 25.0347 194.194 24.3975 194.194 23.1232V21.1734C194.194 20.7656 194.155 20.4216 194.079 20.1412C194.002 19.8609 193.85 19.5932 193.62 19.3384C193.416 19.0835 193.098 18.8286 192.664 18.5738C192.257 18.3189 191.709 18.0258 191.021 17.6945L189.568 17.0446C188.854 16.7132 188.255 16.3437 187.771 15.9359C187.287 15.5026 186.892 14.9929 186.586 14.4067C186.305 13.8205 186.102 13.1451 185.974 12.3805C185.847 11.5904 185.783 10.6729 185.783 9.62793V9.16917C185.783 6.90085 186.369 5.16775 187.542 3.96988C188.714 2.772 190.383 2.17307 192.55 2.17307C194.767 2.17307 196.475 2.78475 197.673 4.00811C198.896 5.20599 199.508 6.92634 199.508 9.16917V12.0364H194.155Z" fill="#CBD5E1"/>
<path d="M175.248 23.0849C175.248 23.8241 175.401 24.3338 175.707 24.6141C176.038 24.8945 176.408 25.0347 176.816 25.0347C177.224 25.0347 177.58 24.8945 177.886 24.6141C178.218 24.3338 178.383 23.8241 178.383 23.0849V16.9681H183.735V22.6644C183.735 25.0092 183.098 26.7678 181.824 27.9402C180.575 29.1126 178.88 29.6987 176.739 29.6987C174.649 29.6987 172.98 29.1253 171.731 27.9784C170.508 26.8315 169.896 25.0602 169.896 22.6644V9.13096C169.896 6.7607 170.508 5.00211 171.731 3.85521C172.98 2.70831 174.649 2.13486 176.739 2.13486C178.88 2.13486 180.575 2.72105 181.824 3.89344C183.098 5.06583 183.735 6.81167 183.735 9.13096V14.8655H178.383V8.74866C178.383 8.00955 178.218 7.49981 177.886 7.21946C177.58 6.9391 177.224 6.79893 176.816 6.79893C176.408 6.79893 176.038 6.9391 175.707 7.21946C175.401 7.49981 175.248 8.00955 175.248 8.74866V23.0849Z" fill="#CBD5E1"/>
<path d="M167.877 2.55539V29.3165H162.524V2.55539H167.877Z" fill="#CBD5E1"/>
<path d="M153.44 2.55539C155.683 2.55539 157.403 3.15433 158.601 4.3522C159.824 5.52459 160.436 7.30866 160.436 9.70442V9.89557C160.436 10.966 160.321 11.909 160.092 12.7246C159.863 13.5402 159.557 14.2283 159.174 14.789C158.792 15.3242 158.359 15.7448 157.875 16.0506C157.416 16.3565 156.957 16.5349 156.498 16.5858V16.9681C156.957 17.0191 157.416 17.2103 157.875 17.5416C158.359 17.8474 158.792 18.2807 159.174 18.8414C159.557 19.4021 159.863 20.0775 160.092 20.8676C160.321 21.6577 160.436 22.537 160.436 23.5055V23.8878C160.436 25.0347 160.449 26.0414 160.474 26.908C160.525 27.7745 160.64 28.5773 160.818 29.3165H155.466C155.288 28.5009 155.173 27.6471 155.122 26.755C155.097 25.863 155.084 24.8945 155.084 23.8496V21.097C155.084 19.7717 154.523 19.109 153.402 19.109H152.178V29.3547H146.826V2.55539H153.44ZM152.178 14.4449H153.402C154.523 14.4449 155.084 13.7568 155.084 12.3805V9.24566C155.084 7.89486 154.523 7.21946 153.402 7.21946H152.178V14.4449Z" fill="#CBD5E1"/>
<path d="M145.091 7.18122H141.154V29.2782H135.802V7.18122H131.902V2.51715H145.091V7.18122Z" fill="#CBD5E1"/>
<path d="M126.009 7.18122V12.954H130.329V17.618H126.009V24.6524H130.52V29.3164H120.656V2.51715H130.405V7.18122H126.009Z" fill="#CBD5E1"/>
<path d="M108.145 2.55539L109.713 20.1412H110.095L111.624 2.55539H118.544V29.3165H113.65L114.224 11.8453H113.88L111.663 29.3165H108.107L105.89 11.8453H105.546L106.119 29.3165H101.187V2.55539H108.145Z" fill="#CBD5E1"/>
<path d="M91.3161 2.55539L92.5777 14.4832H92.9217L94.1833 2.55539H99.5738L95.3685 21.8998V29.3165H90.0162V21.8998L85.9639 2.55539H91.3161Z" fill="#CBD5E1"/>
<path d="M82.3495 2.51715V24.6524H86.746V29.3164H76.9973V2.51715H82.3495Z" fill="#CBD5E1"/>
<path d="M61.1107 9.13094C61.1107 6.76068 61.7224 5.01483 62.9458 3.89342C64.1946 2.74652 65.864 2.17307 67.9539 2.17307C70.0948 2.17307 71.7897 2.75926 73.0385 3.93165C74.3129 5.07855 74.95 6.81165 74.95 9.13094V22.7026C74.95 25.0474 74.3129 26.806 73.0385 27.9784C71.7897 29.1253 70.0948 29.6987 67.9539 29.6987C65.864 29.6987 64.1946 29.1253 62.9458 27.9784C61.7224 26.8315 61.1107 25.0729 61.1107 22.7026V9.13094ZM66.463 23.0849C66.463 23.824 66.6159 24.3465 66.9217 24.6524C67.2531 24.9327 67.6226 25.0729 68.0304 25.0729C68.4637 25.0729 68.8332 24.9327 69.1391 24.6524C69.4449 24.3465 69.5978 23.824 69.5978 23.0849V8.78687C69.5978 8.04776 69.4449 7.53802 69.1391 7.25767C68.8332 6.97731 68.4637 6.83714 68.0304 6.83714C67.6226 6.83714 67.2531 6.97731 66.9217 7.25767C66.6159 7.53802 66.463 8.04776 66.463 8.78687V23.0849Z" fill="#CBD5E1"/>
<path d="M52.3632 2.55539C54.6315 2.55539 56.3646 3.30725 57.5625 4.81097C58.7604 6.31468 59.3593 8.65946 59.3593 11.8453V11.9218C59.3593 13.5529 59.2064 14.9292 58.9006 16.0506C58.6202 17.172 58.1869 18.0768 57.6007 18.7649C57.04 19.4531 56.3137 19.9501 55.4216 20.2559C54.5551 20.5618 53.5229 20.7147 52.325 20.7147H51.1016V29.3165H45.7494V2.55539H52.3632ZM51.1016 16.0888H52.325C52.9367 16.0888 53.37 15.9232 53.6248 15.5918C53.8797 15.235 54.0071 14.6616 54.0071 13.8715V9.5515C54.0071 8.71043 53.8797 8.1115 53.6248 7.75468C53.37 7.39787 52.9367 7.21946 52.325 7.21946H51.1016V16.0888Z" fill="#CBD5E1"/>
<defs>
<clipPath id="clip0_21_1048">
<rect width="37.3333" height="32" fill="white" transform="translate(0.416016)"/>
</clipPath>
</defs>
</svg>
