<svg width="24" height="24" viewBox="0 0 24 24" fill="none" xmlns="http://www.w3.org/2000/svg">
<g id="sidebar - icons">
<path id="Vector" d="M13.0003 15.4C13.0003 13.326 13.0003 12.289 13.6593 11.644C14.3183 10.999 15.3793 11 17.5003 11C19.6213 11 20.6823 11 21.3413 11.644C22.0003 12.29 22.0003 13.326 22.0003 15.4V17.6C22.0003 19.674 22.0003 20.711 21.3413 21.356C20.6823 22.001 19.6213 22 17.5003 22C15.3793 22 14.3183 22 13.6593 21.356C13.0003 20.71 13.0003 19.674 13.0003 17.6V15.4Z" fill="#E2E8F0"/>
<path id="Vector_2" d="M1.99988 8.6C1.99988 10.674 1.99988 11.711 2.65888 12.356C3.31788 13.001 4.37888 13 6.49988 13C8.62088 13 9.68188 13 10.3409 12.356C10.9999 11.71 10.9999 10.674 10.9999 8.6V6.4C10.9999 4.326 10.9999 3.289 10.3409 2.644C9.68188 1.999 8.62088 2 6.49988 2C4.37888 2 3.31788 2 2.65888 2.644C1.99988 3.29 1.99988 4.326 1.99988 6.4V8.6ZM12.9999 5.5C12.9999 4.413 12.9999 3.87 13.1709 3.44C13.3943 2.87497 13.8321 2.42128 14.3889 2.178C14.8019 2 15.3269 2 16.3749 2H18.6249C19.6729 2 20.1979 2 20.6109 2.178C21.1619 2.414 21.6009 2.868 21.8289 3.44C21.9999 3.87 21.9999 4.413 21.9999 5.5C21.9999 6.587 21.9999 7.13 21.8289 7.56C21.6055 8.12503 21.1676 8.57872 20.6109 8.822C20.1979 9 19.6729 9 18.6249 9H16.3749C15.3269 9 14.8019 9 14.3889 8.822C13.8321 8.57872 13.3943 8.12503 13.1709 7.56C12.9999 7.13 12.9999 6.587 12.9999 5.5Z" fill="#94A3B8"/>
<path id="Vector_3" d="M1.99988 18.5C1.99988 19.587 1.99988 20.13 2.17088 20.56C2.39425 21.125 2.83213 21.5787 3.38888 21.822C3.80188 22 4.32688 22 5.37488 22H7.62488C8.67288 22 9.19788 22 9.61088 21.822C10.1619 21.586 10.6009 21.132 10.8289 20.56C10.9999 20.13 10.9999 19.587 10.9999 18.5C10.9999 17.413 10.9999 16.87 10.8289 16.44C10.6055 15.875 10.1676 15.4213 9.61088 15.178C9.19788 15 8.67288 15 7.62488 15H5.37488C4.32688 15 3.80188 15 3.38888 15.178C2.83788 15.414 2.39888 15.868 2.17088 16.44C1.99988 16.87 1.99988 17.413 1.99988 18.5Z" fill="#E2E8F0"/>
</g>
</svg>
