<svg width="130" height="112" viewBox="0 0 130 112" fill="none" xmlns="http://www.w3.org/2000/svg">
<g clip-path="url(#clip0_11_293)">
<path fill-rule="evenodd" clip-rule="evenodd" d="M130 -0.413727H0.000167847V111.015H130V-0.413727ZM37.0678 16.7144C43.6792 16.7144 48.7306 18.6458 52.222 22.5086C55.7135 26.3715 57.4592 32.3886 57.4592 40.5601V40.7829C57.4592 44.9429 57.0135 48.4715 56.122 51.3686C55.3049 54.1915 54.042 56.4944 52.3335 58.2772C50.6992 60.0601 48.582 61.3601 45.982 62.1772C43.4563 62.9944 40.4478 63.4029 36.9563 63.4029H33.3906V94.7144H17.7906V16.7144H37.0678ZM33.3906 62.7344H36.9563C38.7392 62.7344 40.002 62.2515 40.7449 61.2858C41.4878 60.2458 41.8592 58.5744 41.8592 56.2715V23.9572C41.8592 21.6544 41.4878 19.9829 40.7449 18.9429C40.002 17.9029 38.7392 17.3829 36.9563 17.3829H33.3906V62.7344ZM80.7869 16.7144L88.5869 86.803H88.8098L96.1641 16.7144H112.21V94.7144H96.6098V28.0801H96.3869L89.2555 94.7144H73.3212L65.9669 28.0801H65.744V94.7144H64.9641V16.7144H80.7869Z" fill="#03C988"/>
</g>
<defs>
<clipPath id="clip0_11_293">
<rect width="130" height="111.429" fill="white"/>
</clipPath>
</defs>
</svg>
