<svg width="698" height="112" viewBox="0 0 698 112" fill="none" xmlns="http://www.w3.org/2000/svg">
<g clip-path="url(#clip0_11_269)">
<path fill-rule="evenodd" clip-rule="evenodd" d="M130.667 -0.415833H0V111.584H130.667V-0.415833ZM37.2577 16.8001C43.903 16.8001 48.9803 18.7414 52.4897 22.6241C55.999 26.5068 57.7537 32.5548 57.7537 40.7681V40.9921C57.7537 45.1734 57.3057 48.7201 56.4097 51.6321C55.5883 54.4694 54.319 56.7841 52.6017 58.5761C50.959 60.3681 48.831 61.6748 46.2177 62.4961C43.679 63.3174 40.655 63.7281 37.1457 63.7281H33.5617V95.2001H17.8817V16.8001H37.2577ZM33.5617 63.0561H37.1457C38.9377 63.0561 40.207 62.5708 40.9537 61.6001C41.7003 60.5548 42.0737 58.8748 42.0737 56.5601V24.0801C42.0737 21.7654 41.7003 20.0854 40.9537 19.0401C40.207 17.9948 38.9377 17.4721 37.1457 17.4721H33.5617V63.0561ZM81.2013 16.8001L89.0413 87.2481H89.2653L96.6573 16.8001H112.785V95.2001H97.1053V28.2241H96.8813L89.7133 95.2001H73.6973L66.3053 28.2241H66.0813V95.2001H65.2973V16.8001H81.2013Z" fill="#03C988"/>
</g>
<path d="M678.087 42.1275V30.7541C678.087 26.2047 676.303 23.93 672.735 23.93C669.256 23.93 667.517 26.2047 667.517 30.7541V37.0429C667.517 38.4702 667.651 39.7191 667.918 40.7895C668.186 41.7707 668.721 42.7074 669.524 43.5994C670.327 44.4914 671.486 45.4281 673.003 46.4093C674.608 47.3014 676.705 48.3718 679.292 49.6206L683.841 51.6277C686.339 52.7874 688.435 54.0808 690.13 55.5081C691.825 56.9353 693.163 58.6748 694.144 60.7265C695.214 62.689 695.973 65.0083 696.419 67.6844C696.865 70.3605 697.088 73.5272 697.088 77.1845V79.3254C697.088 87.1753 694.947 93.2412 690.665 97.5229C686.383 101.805 680.317 103.946 672.468 103.946C664.707 103.946 658.775 101.849 654.671 97.6568C650.568 93.4642 648.516 87.3537 648.516 79.3254V69.4238H667.249V80.7973C667.249 85.3467 669.078 87.6214 672.735 87.6214C676.392 87.6214 678.221 85.3913 678.221 80.9311V74.107C678.221 72.6798 678.087 71.4755 677.82 70.4943C677.552 69.513 677.017 68.5764 676.214 67.6844C675.5 66.7923 674.385 65.9003 672.869 65.0083C671.442 64.1162 669.524 63.0904 667.115 61.9307L662.031 59.656C659.533 58.4964 657.437 57.2029 655.742 55.7757C654.047 54.2592 652.664 52.4752 651.594 50.4235C650.613 48.3718 649.899 46.0079 649.453 43.3318C649.007 40.5665 648.784 37.3552 648.784 33.6978V32.0921C648.784 24.153 650.836 18.0872 654.939 13.8946C659.042 9.70206 664.885 7.60577 672.468 7.60577C680.228 7.60577 686.205 9.74666 690.397 14.0284C694.679 18.221 696.82 24.2422 696.82 32.0921V42.1275H678.087Z" fill="white"/>
<path d="M611.913 80.7974C611.913 83.3843 612.448 85.1683 613.519 86.1496C614.678 87.1308 615.972 87.6214 617.399 87.6214C618.826 87.6214 620.075 87.1308 621.146 86.1496C622.305 85.1683 622.885 83.3843 622.885 80.7974V59.3885H641.618V79.3255C641.618 87.5322 639.388 93.6873 634.928 97.7906C630.557 101.894 624.625 103.946 617.131 103.946C609.817 103.946 603.974 101.939 599.603 97.9244C595.321 93.9103 593.18 87.7106 593.18 79.3255V31.9584C593.18 23.6625 595.321 17.5074 599.603 13.4933C603.974 9.47913 609.817 7.47205 617.131 7.47205C624.625 7.47205 630.557 9.52373 634.928 13.6271C639.388 17.7305 641.618 23.8409 641.618 31.9584V52.0292H622.885V30.6204C622.885 28.0335 622.305 26.2494 621.146 25.2682C620.075 24.2869 618.826 23.7963 617.399 23.7963C615.972 23.7963 614.678 24.2869 613.519 25.2682C612.448 26.2494 611.913 28.0335 611.913 30.6204V80.7974Z" fill="white"/>
<path d="M586.112 8.94397V102.608H567.379V8.94397H586.112Z" fill="white"/>
<path d="M535.584 8.94397C543.434 8.94397 549.455 11.0403 553.647 15.2328C557.929 19.3362 560.07 25.5804 560.07 33.9656V34.6346C560.07 38.3811 559.669 41.6817 558.866 44.5362C558.063 47.3907 556.992 49.7992 555.654 51.7617C554.316 53.6349 552.8 55.1068 551.105 56.1773C549.499 57.2477 547.894 57.8721 546.288 58.0505V59.3886C547.894 59.567 549.499 60.236 551.105 61.3957C552.8 62.4661 554.316 63.9826 555.654 65.945C556.992 67.9075 558.063 70.2714 558.866 73.0367C559.669 75.802 560.07 78.8795 560.07 82.2693V83.6073C560.07 87.6215 560.115 91.1451 560.204 94.178C560.382 97.2109 560.784 100.021 561.408 102.608H542.675C542.051 99.7532 541.649 96.7649 541.471 93.6427C541.382 90.5206 541.337 87.1309 541.337 83.4735V73.8396C541.337 69.201 539.375 66.8817 535.45 66.8817H531.168V102.742H512.435V8.94397H535.584ZM531.168 50.5574H535.45C539.375 50.5574 541.337 48.1489 541.337 43.3319V32.3599C541.337 27.6321 539.375 25.2682 535.45 25.2682H531.168V50.5574Z" fill="white"/>
<path d="M506.364 25.1343H492.582V102.474H473.849V25.1343H460.201V8.81006H506.364V25.1343Z" fill="white"/>
<path d="M439.574 25.1343V45.3389H454.694V61.6632H439.574V86.2833H455.363V102.608H420.841V8.81006H454.962V25.1343H439.574Z" fill="white"/>
<path d="M377.053 8.94397L382.539 70.4944H383.877L389.229 8.94397H413.448V102.608H396.32L398.328 41.4587H397.123L389.363 102.608H376.919L369.158 41.4587H367.954L369.961 102.608H352.7V8.94397H377.053Z" fill="white"/>
<path d="M318.15 8.94397L322.566 50.6912H323.77L328.185 8.94397H347.052L332.333 76.6495V102.608H313.601V76.6495L299.417 8.94397H318.15Z" fill="white"/>
<path d="M286.767 8.81006V86.2833H302.155V102.608H268.034V8.81006H286.767Z" fill="white"/>
<path d="M212.431 31.9583C212.431 23.6624 214.572 17.552 218.854 13.627C223.225 9.61285 229.068 7.60577 236.382 7.60577C243.876 7.60577 249.808 9.65746 254.179 13.7608C258.639 17.775 260.869 23.8408 260.869 31.9583V79.4592C260.869 87.666 258.639 93.821 254.179 97.9244C249.808 101.939 243.876 103.946 236.382 103.946C229.068 103.946 223.225 101.939 218.854 97.9244C214.572 93.9102 212.431 87.7552 212.431 79.4592V31.9583ZM231.164 80.7973C231.164 83.3842 231.699 85.2129 232.77 86.2833C233.929 87.2645 235.223 87.7552 236.65 87.7552C238.167 87.7552 239.46 87.2645 240.53 86.2833C241.601 85.2129 242.136 83.3842 242.136 80.7973V30.7541C242.136 28.1672 241.601 26.3831 240.53 25.4019C239.46 24.4206 238.167 23.93 236.65 23.93C235.223 23.93 233.929 24.4206 232.77 25.4019C231.699 26.3831 231.164 28.1672 231.164 30.7541V80.7973Z" fill="white"/>
<path d="M181.815 8.94397C189.754 8.94397 195.82 11.5755 200.013 16.8385C204.205 22.1015 206.301 30.3082 206.301 41.4587V41.7263C206.301 47.4353 205.766 52.2523 204.696 56.1772C203.714 60.1022 202.198 63.2689 200.146 65.6774C198.184 68.0859 195.642 69.8254 192.519 70.8958C189.487 71.9663 185.874 72.5015 181.681 72.5015H177.399V102.608H158.667V8.94397H181.815ZM177.399 56.3111H181.681C183.822 56.3111 185.339 55.7312 186.231 54.5716C187.123 53.3227 187.569 51.3157 187.569 48.5503V33.4303C187.569 30.4866 187.123 28.3903 186.231 27.1415C185.339 25.8926 183.822 25.2682 181.681 25.2682H177.399V56.3111Z" fill="white"/>
<defs>
<clipPath id="clip0_11_269">
<rect width="130.667" height="112" fill="white"/>
</clipPath>
</defs>
</svg>
