<svg width="36" height="36" viewBox="0 0 36 36" fill="none" xmlns="http://www.w3.org/2000/svg">
<g id="solar:chat-round-line-bold-duotone">
<path id="Subtract" fill-rule="evenodd" clip-rule="evenodd" d="M33 18C33 26.2845 26.2845 33 18 33C15.6827 33.003 13.3964 32.4668 11.322 31.434C10.7912 31.159 10.1781 31.0881 9.5985 31.2345L6.2595 32.1285C5.92901 32.2167 5.58113 32.2164 5.25079 32.1276C4.92045 32.0389 4.61927 31.8648 4.37747 31.6228C4.13568 31.3809 3.96178 31.0796 3.87323 30.7492C3.78469 30.4188 3.78461 30.0709 3.873 29.7405L4.7655 26.4015C4.92 25.824 4.8315 25.2135 4.5645 24.6795C3.564 22.668 3 20.4 3 18C3 9.7155 9.7155 3 18 3C26.2845 3 33 9.7155 33 18ZM10.8625 19.6375C11.0945 19.4054 11.4093 19.275 11.7375 19.275H20.8125C21.1407 19.275 21.4555 19.4054 21.6875 19.6375C21.9196 19.8695 22.05 20.1843 22.05 20.5125C22.05 20.8407 21.9196 21.1555 21.6875 21.3875C21.4555 21.6196 21.1407 21.75 20.8125 21.75H11.7375C11.4093 21.75 11.0945 21.6196 10.8625 21.3875C10.6304 21.1555 10.5 20.8407 10.5 20.5125C10.5 20.1843 10.6304 19.8695 10.8625 19.6375ZM10.8625 13.8625C11.0945 13.6304 11.4093 13.5 11.7375 13.5H24.9375C25.2657 13.5 25.5805 13.6304 25.8125 13.8625C26.0446 14.0945 26.175 14.4093 26.175 14.7375C26.175 15.0657 26.0446 15.3805 25.8125 15.6125C25.5805 15.8446 25.2657 15.975 24.9375 15.975H11.7375C11.4093 15.975 11.0945 15.8446 10.8625 15.6125C10.6304 15.3805 10.5 15.0657 10.5 14.7375C10.5 14.4093 10.6304 14.0945 10.8625 13.8625Z" fill="#10B981"/>
<path id="Vector" d="M11.7375 19.275C11.4093 19.275 11.0945 19.4054 10.8625 19.6375C10.6304 19.8695 10.5 20.1843 10.5 20.5125C10.5 20.8407 10.6304 21.1555 10.8625 21.3875C11.0945 21.6196 11.4093 21.75 11.7375 21.75H20.8125C21.1407 21.75 21.4555 21.6196 21.6875 21.3875C21.9196 21.1555 22.05 20.8407 22.05 20.5125C22.05 20.1843 21.9196 19.8695 21.6875 19.6375C21.4555 19.4054 21.1407 19.275 20.8125 19.275H11.7375ZM11.7375 13.5C11.4093 13.5 11.0945 13.6304 10.8625 13.8625C10.6304 14.0945 10.5 14.4093 10.5 14.7375C10.5 15.0657 10.6304 15.3805 10.8625 15.6125C11.0945 15.8446 11.4093 15.975 11.7375 15.975H24.9375C25.2657 15.975 25.5805 15.8446 25.8125 15.6125C26.0446 15.3805 26.175 15.0657 26.175 14.7375C26.175 14.4093 26.0446 14.0945 25.8125 13.8625C25.5805 13.6304 25.2657 13.5 24.9375 13.5H11.7375Z" fill="#6EE7B7"/>
</g>
</svg>
