<svg width="24" height="24" viewBox="0 0 24 24" fill="none" xmlns="http://www.w3.org/2000/svg">
<path fill-rule="evenodd" clip-rule="evenodd" d="M12.7505 22.0001C17.9225 21.6161 22.0005 17.2921 22.0005 12.0141V12.0001C22.0005 6.47705 17.5235 2.00005 12.0005 2.00005C6.47749 2.00005 2.00049 6.47705 2.00049 12.0001V12.0141C2.00049 17.2921 6.07849 21.6161 11.2505 22.0001V21.9721C8.73643 21.783 6.38658 20.6512 4.67137 18.8035C2.95617 16.9557 2.00221 14.5282 2.00049 12.0071C2.00449 6.48005 6.48049 2.00005 12.0005 2.00005C17.5205 2.00005 21.9965 6.48005 22.0005 12.0071C21.9965 17.2741 17.9205 21.5891 12.7505 21.9721V22.0001Z" fill="#6EE7B7"/>
<path d="M11.2505 21.9721C11.7498 22.0096 12.2512 22.0096 12.7505 21.9721C17.9205 21.5891 21.9965 17.2741 22.0005 12.0071C21.9965 6.48005 17.5205 2.00005 12.0005 2.00005C6.48049 2.00005 2.00449 6.48005 2.00049 12.0071C2.00449 17.2741 6.08049 21.5891 11.2505 21.9721Z" fill="#6EE7B7"/>
<path d="M8.49951 12.5151C8.49922 13.3137 8.77168 14.0885 9.27178 14.7112C9.77188 15.3338 10.4696 15.767 11.2495 15.9391V21.9721C11.7488 22.0096 12.2502 22.0096 12.7495 21.9721V15.9401C13.5294 15.768 14.2271 15.3348 14.7272 14.7122C15.2273 14.0895 15.4998 13.3147 15.4995 12.5161V12.0151C15.4996 11.8837 15.4739 11.7535 15.4237 11.6321C15.3735 11.5106 15.2998 11.4003 15.207 11.3073C15.1141 11.2143 15.0038 11.1406 14.8824 11.0903C14.761 11.04 14.6309 11.0141 14.4995 11.0141H14.2495V9.01006C14.2495 8.81115 14.1705 8.62038 14.0298 8.47973C13.8892 8.33908 13.6984 8.26006 13.4995 8.26006C13.3006 8.26006 13.1098 8.33908 12.9692 8.47973C12.8285 8.62038 12.7495 8.81115 12.7495 9.01006V11.0131H11.2495V9.01006C11.2495 8.81115 11.1705 8.62038 11.0298 8.47973C10.8892 8.33908 10.6984 8.26006 10.4995 8.26006C10.3006 8.26006 10.1098 8.33908 9.96918 8.47973C9.82853 8.62038 9.74951 8.81115 9.74951 9.01006V11.0131H9.49951C9.36811 11.0131 9.23799 11.039 9.1166 11.0893C8.99521 11.1396 8.88492 11.2133 8.79205 11.3063C8.69918 11.3993 8.62554 11.5096 8.57535 11.6311C8.52515 11.7525 8.49938 11.8827 8.49951 12.0141V12.5151Z" fill="#059669"/>
</svg>
