<svg width="24" height="24" viewBox="0 0 24 24" fill="none" xmlns="http://www.w3.org/2000/svg">
<g id="sidebar - icons">
<path id="Vector" d="M3.46449 3.464C2.00049 4.93 2.00049 7.286 2.00049 12C2.00049 16.714 2.00049 19.071 3.46449 20.535C4.93049 22 7.28649 22 12.0005 22C16.7145 22 19.0715 22 20.5355 20.535C22.0005 19.072 22.0005 16.714 22.0005 12C22.0005 7.286 22.0005 4.929 20.5355 3.464C19.0725 2 16.7145 2 12.0005 2C7.28649 2 4.92949 2 3.46449 3.464Z" fill="#6EE7B7"/>
<path id="Vector_2" fill-rule="evenodd" clip-rule="evenodd" d="M11.2504 7.50004V5.29004C9.60045 5.47495 8.07649 6.26138 6.96979 7.49903C5.8631 8.73669 5.25128 10.3388 5.25128 11.999C5.25128 13.6593 5.8631 15.2614 6.96979 16.499C8.07649 17.7367 9.60045 18.5231 11.2504 18.708V16.5C11.2504 16.3011 11.3294 16.1104 11.4701 15.9697C11.6107 15.8291 11.8015 15.75 12.0004 15.75C12.1993 15.75 12.3901 15.8291 12.5307 15.9697C12.6714 16.1104 12.7504 16.3011 12.7504 16.5V18.709C14.4004 18.5241 15.9243 17.7377 17.031 16.5C18.1377 15.2624 18.7495 13.6603 18.7495 12C18.7495 10.3398 18.1377 8.73769 17.031 7.50003C15.9243 6.26238 14.4004 5.47595 12.7504 5.29104V7.50004C12.7504 7.69895 12.6714 7.88972 12.5307 8.03037C12.3901 8.17102 12.1993 8.25004 12.0004 8.25004C11.8015 8.25004 11.6107 8.17102 11.4701 8.03037C11.3294 7.88972 11.2504 7.69895 11.2504 7.50004ZM15.0004 12C15.0004 12.2653 14.895 12.5196 14.7075 12.7071C14.52 12.8947 14.2656 13 14.0004 13C13.7352 13 13.4808 12.8947 13.2933 12.7071C13.1058 12.5196 13.0004 12.2653 13.0004 12C13.0004 11.7348 13.1058 11.4805 13.2933 11.2929C13.4808 11.1054 13.7352 11 14.0004 11C14.2656 11 14.52 11.1054 14.7075 11.2929C14.895 11.4805 15.0004 11.7348 15.0004 12ZM10.0004 13C10.2656 13 10.52 12.8947 10.7075 12.7071C10.895 12.5196 11.0004 12.2653 11.0004 12C11.0004 11.7348 10.895 11.4805 10.7075 11.2929C10.52 11.1054 10.2656 11 10.0004 11C9.73519 11 9.48083 11.1054 9.2933 11.2929C9.10576 11.4805 9.0004 11.7348 9.0004 12C9.0004 12.2653 9.10576 12.5196 9.2933 12.7071C9.48083 12.8947 9.73519 13 10.0004 13Z" fill="#059669"/>
</g>
</svg>
