<svg width="24" height="24" viewBox="0 0 24 24" fill="none" xmlns="http://www.w3.org/2000/svg">
<path fill-rule="evenodd" clip-rule="evenodd" d="M2 16.1441V4.99808C2 3.90008 2.886 3.00808 3.982 3.07508C4.959 3.13508 6.113 3.25408 7 3.48808C8.05 3.76408 9.296 4.35408 10.282 4.87608C10.8112 5.15355 11.4027 5.29091 12 5.27508V20.4751C11.4322 20.4754 10.8731 20.3359 10.372 20.0691C9.372 19.5371 8.082 18.9191 7 18.6341C6.123 18.4021 4.984 18.2841 4.015 18.2231C2.906 18.1531 2 17.2561 2 16.1441Z" fill="#6EE7B7"/>
<path d="M22 16.144V4.93397C22 3.86097 21.154 2.98097 20.082 3.01797C18.953 3.05797 17.547 3.17397 16.5 3.48797C15.592 3.75897 14.535 4.30397 13.674 4.80297C13.1646 5.09865 12.5888 5.261 12 5.27497V20.475C12.56 20.475 13.121 20.339 13.628 20.069C14.628 19.537 15.918 18.919 17 18.634C17.877 18.402 19.016 18.284 19.985 18.223C21.094 18.153 22 17.256 22 16.144Z" fill="#059669"/>
</svg>
