<svg width="32" height="32" viewBox="0 0 32 32" fill="none" xmlns="http://www.w3.org/2000/svg">
<path d="M29.3334 15.9998C29.3334 23.3638 23.364 29.3332 16 29.3332C8.63602 29.3332 2.66669 23.3638 2.66669 15.9998C2.66669 8.63584 8.63602 2.6665 16 2.6665C23.364 2.6665 29.3334 8.63584 29.3334 15.9998Z" fill="#059669"/>
<path d="M22.4093 25.348C20.5237 26.6446 18.2884 27.337 16 27.3333C13.7116 27.337 11.4763 26.6446 9.59066 25.348C8.78533 24.7947 8.44133 23.7413 8.91066 22.884C9.88 21.1067 11.88 20 16 20C20.12 20 22.12 21.1067 23.0907 22.884C23.5573 23.7413 23.2147 24.7947 22.4093 25.348ZM16 16C17.0609 16 18.0783 15.5786 18.8284 14.8284C19.5786 14.0783 20 13.0609 20 12C20 10.9391 19.5786 9.92172 18.8284 9.17157C18.0783 8.42143 17.0609 8 16 8C14.9391 8 13.9217 8.42143 13.1716 9.17157C12.4214 9.92172 12 10.9391 12 12C12 13.0609 12.4214 14.0783 13.1716 14.8284C13.9217 15.5786 14.9391 16 16 16Z" fill="white"/>
</svg>
