<svg width="131" height="112" viewBox="0 0 131 112" fill="none" xmlns="http://www.w3.org/2000/svg">
<g clip-path="url(#clip0_17_580)">
<path d="M0.484222 -0.413727H130.484V111.015H0.484222V-0.413727Z" fill="#03C988"/>
<path fill-rule="evenodd" clip-rule="evenodd" d="M52.7061 22.5086C49.2147 18.6458 44.1632 16.7144 37.5518 16.7144H18.2747V94.7144H33.8747V63.4029H37.4404C40.9318 63.4029 43.9404 62.9944 46.4661 62.1772C49.0661 61.3601 51.1832 60.0601 52.8175 58.2772C54.5261 56.4944 55.7889 54.1915 56.6061 51.3686C57.4975 48.4715 57.9432 44.9429 57.9432 40.7829V40.5601C57.9432 32.3886 56.1975 26.3715 52.7061 22.5086ZM37.4404 62.7344H33.8747V17.3829H37.4404C39.2232 17.3829 40.4861 17.9029 41.2289 18.9429C41.9718 19.9829 42.3432 21.6544 42.3432 23.9572V56.2715C42.3432 58.5744 41.9718 60.2458 41.2289 61.2858C40.4861 62.2515 39.2232 62.7344 37.4404 62.7344ZM89.071 86.803L81.271 16.7144H65.4481V94.7144H66.2281V28.0801H66.451L73.8052 94.7144H89.7395L96.871 28.0801H97.0938V94.7144H112.694V16.7144H96.6481L89.2938 86.803H89.071Z" fill="#101828"/>
</g>
<defs>
<clipPath id="clip0_17_580">
<rect width="130" height="111.429" fill="white" transform="translate(0.484131)"/>
</clipPath>
</defs>
</svg>
