<svg width="28" height="24" viewBox="0 0 28 24" fill="none" xmlns="http://www.w3.org/2000/svg">
<g id="Frame 105301" clip-path="url(#clip0_2453_2811)">
<rect id="Rectangle 1" x="-0.000244141" y="-0.0891418" width="28" height="24" fill="#10B981"/>
<path id="Union" fill-rule="evenodd" clip-rule="evenodd" d="M19.08 18.6961L17.4 3.60007H13.992V20.4001H14.16V6.04807H14.208L15.792 20.4001H19.224L20.76 6.04807H20.808V20.4001H24.168V3.60007H20.712L19.128 18.6961H19.08ZM11.2475 4.8481C10.4955 4.0161 9.40754 3.6001 7.98354 3.6001H3.83154V20.4001H7.19154V13.6561H7.95954C8.71154 13.6561 9.35954 13.5681 9.90354 13.3921C10.4635 13.2161 10.9195 12.9361 11.2715 12.5521C11.6395 12.1681 11.9115 11.6721 12.0875 11.0641C12.2795 10.4401 12.3755 9.6801 12.3755 8.7841V8.7361C12.3755 6.9761 11.9995 5.6801 11.2475 4.8481ZM7.95954 13.5121H7.19154V3.7441H7.95954C8.34354 3.7441 8.61554 3.8561 8.77554 4.0801C8.93554 4.3041 9.01554 4.6641 9.01554 5.1601V12.1201C9.01554 12.6161 8.93554 12.9761 8.77554 13.2001C8.61554 13.4081 8.34354 13.5121 7.95954 13.5121Z" fill="#1E293B"/>
</g>
<defs>
<clipPath id="clip0_2453_2811">
<rect width="28" height="24" fill="white"/>
</clipPath>
</defs>
</svg>
